<?xml version="1.0" encoding="UTF-8" standalone="no"?>
<!DOCTYPE svg PUBLIC "-//W3C//DTD SVG 20010904//EN"
"http://www.w3.org/TR/2001/REC-SVG-20010904/DTD/svg10.dtd">
<!-- Created with Inkscape (http://www.inkscape.org/) -->
<svg
   id="svg578"
   sodipodi:version="0.32"
   inkscape:version="0.37"
   width="210mm"
   height="297mm"
   sodipodi:docbase="/home/iain"
   sodipodi:docname="GentooWallpaper_2.svg"
   xmlns="http://www.w3.org/2000/svg"
   xmlns:inkscape="http://www.inkscape.org/namespaces/inkscape"
   xmlns:sodipodi="http://sodipodi.sourceforge.net/DTD/sodipodi-0.dtd"
   xmlns:xlink="http://www.w3.org/1999/xlink">
  <defs
     id="defs580">
    <linearGradient
       id="linearGradient661">
      <stop
         style="stop-color:#ffffff;stop-opacity:0;"
         offset="0.00000000"
         id="stop662" />
      <stop
         style="stop-color:#ffffff;stop-opacity:1;"
         offset="1.00000000"
         id="stop663" />
    </linearGradient>
    <linearGradient
       id="linearGradient655">
      <stop
         style="stop-color:#ffffff;stop-opacity:0;"
         offset="0.00000000"
         id="stop656" />
      <stop
         style="stop-color:#ffffff;stop-opacity:0;"
         offset="1.00000000"
         id="stop657" />
    </linearGradient>
    <linearGradient
       id="linearGradient632">
      <stop
         style="stop-color:#ffffff;stop-opacity:1;"
         offset="0.00000000"
         id="stop633" />
      <stop
         style="stop-color:#ffffff;stop-opacity:0;"
         offset="1.00000000"
         id="stop634" />
    </linearGradient>
    <radialGradient
       xlink:href="#linearGradient632"
       id="radialGradient635"
       cx="1.17197454"
       cy="0.41333333"
       r="1.94560134"
       fx="1.17197454"
       fy="0.41333333" />
    <linearGradient
       xlink:href="#linearGradient661"
       id="linearGradient653"
       x1="0.73575103"
       y1="0.13999851"
       x2="0.21243528"
       y2="0.68666518" />
    <radialGradient
       xlink:href="#linearGradient655"
       id="radialGradient654"
       cx="0.50000000"
       cy="0.50000000"
       r="0.50000000"
       fx="0.50000000"
       fy="0.50000000" />
    <radialGradient
       xlink:href="#linearGradient655"
       id="radialGradient658" />
    <linearGradient
       xlink:href="#linearGradient661"
       id="linearGradient650"
       x1="0.76165801"
       y1="0.03333334"
       x2="0.36269429"
       y2="0.76666665" />
    <linearGradient
       xlink:href="#linearGradient661"
       id="linearGradient654"
       x1="0.74611402"
       y1="0.06666667"
       x2="0.12435233"
       y2="0.80666667" />
    <linearGradient
       xlink:href="#linearGradient661"
       id="linearGradient669"
       x1="0.03703704"
       y1="0.04000000"
       x2="1.06349206"
       y2="0.95999998" />
    <linearGradient
       xlink:href="#linearGradient661"
       id="linearGradient727"
       x1="0.08805031"
       y1="0.08000000"
       x2="0.69182390"
       y2="0.60666668" />
  </defs>
  <sodipodi:namedview
     id="base"
     pagecolor="#ffffff"
     bordercolor="#666666"
     borderopacity="1.0"
     inkscape:pageopacity="1"
     inkscape:pageshadow="2"
     inkscape:zoom="0.79226526"
     inkscape:cx="297.637782"
     inkscape:cy="572.409295"
     inkscape:window-width="1145"
     inkscape:window-height="803"
     inkscape:window-x="0"
     inkscape:window-y="0" />
  <path
     style="font-size:12;fill:#ffffff;"
     d="M -0.19112479 584.90039 C 1.8346349 593.62004 20.646507 594.86717 27.355568 600.85366 C 40.711041 612.77087 50.286621 639.81633 52.232376 661.89448 C 53.484315 676.09937 43.845728 687.23631 43.037292 701.24701 C 41.090465 734.98498 46.101202 771.95498 41.735172 805.12919 C 39.059075 825.46076 30.831711 845.43814 26.940562 865.50109 C 23.803712 881.675 2.1220789 917.05804 12.060206 931.86487 C 15.194302 936.53416 19.712077 939.30594 23.762512 941.96653 C 27.638453 944.51417 32.664649 949.2758 36.937024 949.8062 C 41.850152 950.41705 45.781301 943.50128 48.912883 939.0664 C 62.803962 919.39527 58.545122 896.86335 65.821886 874.05598 C 70.851666 858.29102 81.965085 838.60793 94.200598 855.60135 C 106.56428 872.77105 95.995935 890.63196 95.322828 909.98658 C 93.511927 962.04314 76.834205 1008.7153 50.093916 1043.7408 C 41.249519 1055.324 31.794416 1071.2018 18.971783 1072.5297 C 16.153642 1060.4178 11.615383 1070.7671 12.983383 1079.3734 C -14.602355 1081.5057 -14.981541 1131.8822 -23.05332 1158.0716 C -25.879612 1167.2424 -31.588651 1174.7061 -34.923908 1183.7436 L 28.55325 1183.7436 C 36.365126 1183.7436 48.992411 1187.1363 56.035259 1181.7257 C 64.312683 1175.3662 65.73589 1156.7608 71.817715 1147.0871 C 86.051573 1124.4442 103.20598 1108.2153 118.37941 1087.8533 C 130.04484 1072.1975 145.26019 1047.8746 161.49598 1041.8466 C 168.70242 1039.1719 178.56414 1053.1099 186.6473 1053.7091 C 181.14395 1069.6553 165.51778 1070.1019 155.50756 1077.254 C 150.52879 1080.8106 146.37284 1087.4272 141.13537 1089.6398 C 139.60953 1097.4178 134.28583 1102.848 130.35623 1108.4604 C 122.02275 1120.3622 113.88691 1135.1665 104.00722 1144.451 C 94.109578 1153.7496 80.770993 1165.0289 80.053576 1183.7436 L 167.48439 1183.7436 C 181.38229 1183.7436 196.8707 1186.508 210.60094 1183.49 C 215.80727 1182.3456 219.0494 1176.2133 223.77544 1173.4926 C 229.77582 1170.04 237.76677 1168.5806 244.13604 1166.0127 C 250.75802 1163.3431 257.88783 1166.6233 264.49665 1164.0707 C 274.23858 1160.3048 282.38401 1149.4773 292.04333 1145.0188 C 302.93864 1139.9902 315.18734 1139.2101 325.57843 1133.6592 C 337.52531 1127.2792 348.017 1114.5427 360.31121 1109.5501 C 367.32603 1106.7029 377.06798 1102.2802 384.26486 1101.6902 C 393.88704 1100.901 404.85181 1104.2068 414.20691 1100.5313 C 430.56605 1094.1018 438.69712 1082.39 452.53274 1070.5758 C 456.25872 1067.3931 460.74405 1067.5732 464.50956 1064.4862 C 473.33647 1057.2505 483.99705 1047.3044 494.58576 1046.4769 C 522.46899 1044.2949 514.30559 1079.1241 527.51962 1101.2999 C 534.17874 1112.4758 544.03446 1116.0126 550.2708 1128.9992 C 554.87469 1138.5856 551.22415 1151.0396 558.05932 1159.0469 C 570.39903 1173.5045 594.49281 1172.8086 609.4291 1177.5737 C 616.25949 1179.7513 621.13285 1185.4711 628.59203 1183.2662 C 638.16869 1180.438 642.70431 1160.1677 643.90199 1147.813 C 645.45299 1131.8253 638.1064 1106.9156 635.17688 1091.3503 C 632.64618 1077.902 634.62953 1060.7441 634.57923 1046.8648 C 634.53492 1034.7817 628.02671 1022.6785 630.57298 1010.9347 C 631.54191 1006.4632 634.18878 999.46565 638.19144 1001.0227 C 652.30732 1006.5094 653.72059 1039.4444 653.74335 1055.4196 C 653.76012 1067.2377 658.31131 1076.4084 658.51491 1087.9284 C 659.08979 1120.4118 655.32668 1152.9816 662.12712 1183.7436 L 707.63904 1183.7436 C 712.65254 1183.7436 720.92853 1186.0238 724.53474 1179.777 C 729.22846 1171.6464 726.33007 1155.8683 726.91454 1146.1015 C 727.36007 1138.6764 730.49202 1132.7799 731.3244 1125.5697 C 734.19645 1100.7183 736.27563 1056.3418 759.13938 1051.9977 L 759.13938 1021.2002 L 757.9417 1021.2002 C 745.31333 1050.9405 725.86177 1057.131 702.84831 1057.131 L 696.1377 1025.7134 L 680.55825 1007.36 L 678.89467 976.71481 L 672.90626 975.00383 C 692.18894 920.65794 733.7054 894.9642 745.36842 832.99249 C 746.58048 826.54721 747.61407 810.71895 744.04499 805.60142 C 740.79687 800.94414 734.87434 800.31622 732.99996 793.50479 C 730.31117 783.73333 741.06156 778.81602 730.38902 771.06181 C 718.02534 762.07918 697.15453 765.72528 693.59982 740.59956 C 687.60421 698.22456 722.26993 683.57995 730.70401 651.62859 C 737.16789 627.14567 725.45576 594.31568 707.63904 587.35333 C 689.93777 587.97591 667.82689 587.54257 653.74454 596.5287 C 632.31082 610.2056 656.17704 638.24085 646.6854 660.18347 C 640.44189 674.61475 620.99992 681.70404 620.3915 699.53603 C 619.86571 714.90113 647.52738 738.41101 628.43273 753.30786 C 619.22734 760.48968 603.34129 753.88102 594.73354 747.62704 C 589.6901 743.96248 588.6098 736.6554 584.80835 731.42408 C 576.35392 719.79162 566.4431 708.78918 557.58743 697.17284 C 545.58067 681.42497 531.06236 670.49214 520.68444 651.56119 C 514.53555 640.34606 504.99361 609.06691 494.43364 607.32926 C 473.15683 603.82858 452.49801 600.38977 430.97446 601.8333 C 423.77519 602.31613 410.12881 599.38917 409.86651 615.76544 C 409.75273 622.81726 414.60454 628.63234 418.99764 630.3548 C 432.30149 635.57156 449.70261 639.06552 460.91651 652.07875 C 475.00724 668.4306 492.54131 666.84931 508.77709 680.36673 C 521.69529 691.12298 533.00979 711.89446 543.55658 726.91308 C 560.88346 751.58611 580.20565 771.77529 591.46387 803.90583 L 586.67314 803.90583 C 583.65259 839.41549 569.38579 848.34852 549.5462 864.3188 C 543.8081 868.93844 539.48087 876.88765 532.77624 878.62602 C 522.31689 881.33452 510.70057 875.9449 500.44003 879.93149 C 495.37263 881.89912 492.07541 888.3786 487.26552 891.1504 C 480.23034 895.202 467.33489 897.69832 459.71883 899.35626 C 450.37452 901.39234 440.03373 896.87705 430.97446 901.3735 C 422.69967 905.48158 410.36474 912.81825 405.51413 923.70007 C 400.60243 934.72222 404.00625 951.87308 413.01042 955.87679 C 417.63827 957.93509 423.74525 956.18304 428.5791 956.18304 C 428.87732 973.78221 442.19075 985.23547 452.53274 992.11351 L 452.53274 995.53555 C 446.87848 1000.6342 445.27119 1010.3744 439.34027 1015.3797 C 426.78856 1025.9705 413.19247 1042.5771 399.83473 1050.2715 C 394.38168 1053.411 388.33697 1049.5938 383.06718 1052.5929 C 359.9555 1065.7475 334.58858 1090.3443 307.6132 1078.2564 C 302.71827 1076.0625 299.71089 1070.1993 295.43277 1066.5892 C 290.28154 1062.2416 285.68243 1059.1821 282.02711 1051.9909 C 263.90379 1016.3292 284.81293 998.46998 292.80147 966.44894 C 294.67104 958.95141 289.42639 951.32387 284.85603 948.90452 C 273.52476 942.90755 270.50062 962.20227 264.9314 970.91461 C 260.08558 978.49252 251.03589 986.49814 245.13012 992.62347 C 240.05554 997.88646 234.20246 996.06255 228.56617 998.53488 C 219.34881 1002.5778 208.44392 1018.1688 198.62411 1016.8834 C 189.12889 1015.6391 181.34875 1003.1303 173.4728 996.89759 C 168.79584 993.19667 147.19085 990.45227 147.19085 981.69379 C 147.19085 974.94739 155.86567 971.17294 158.88023 967.55936 C 168.00418 956.61933 178.95698 942.61839 185.88438 928.80738 C 196.48266 907.67331 199.30201 880.92728 208.62716 858.65717 C 215.63959 841.91009 227.05351 834.34416 236.94995 822.36216 C 248.39021 808.51178 258.7837 782.98739 272.88042 774.83456 C 281.28095 769.97709 295.0567 772.44771 304.02016 773.18175 C 321.91951 774.64806 340.3686 788.07415 357.91584 792.9282 C 369.85914 796.23211 384.18581 792.6664 396.24168 791.99569 C 412.57926 791.08373 425.75976 797.59572 432.34581 769.68624 C 437.24912 748.91134 416.98553 735.30627 411.76843 720.09156 C 408.09753 709.38648 413.07869 696.37072 408.5275 685.84817 C 401.97857 670.71049 390.59221 665.9134 382.26353 654.24914 C 377.10271 647.02229 375.1972 636.78088 369.86992 629.54685 C 356.22952 611.02157 328.65407 594.31531 310.00856 594.66983 C 300.67502 594.84732 283.28348 590.67518 275.27578 597.90964 C 260.85808 610.93393 263.17919 631.13618 256.99676 649.91761 C 251.2335 667.42385 242.63774 680.00689 235.96666 696.18148 C 229.63091 711.54472 225.47735 729.54954 218.2218 744.0215 C 199.01457 782.33033 174.01415 788.32393 143.53074 791.26167 C 136.80575 791.90844 131.13951 798.97309 124.36782 798.04229 C 103.3497 795.15072 83.55081 757.77094 83.046579 728.62267 C 82.799864 714.35756 91.256698 700.95665 95.415048 689.27015 C 101.21902 672.95819 103.18322 650.93446 110.84001 636.25477 C 115.94214 626.47547 139.57958 606.31073 135.56974 592.28826 C 133.30493 584.37113 107.24456 587.1701 101.61186 587.38898 C 68.235692 588.68584 33.59944 584.90039 -0.19112479 584.90039 z "
     id="path576"
     sodipodi:nodetypes="cccccccccccccccccccccccccccccccccccccccccccccccccccccccccccccccccccccccccccccccccccccccccccccccccccccccccccccccccccccccccccccccccccccccccccccc" />
  <path
     style="font-size:12;fill:#ffffff;"
     d="M 751.09722 1110.3197 C 741.77658 1125.9317 745.54757 1128.5036 746.49864 1146.1119 C 747.08638 1156.9827 739.62274 1163.0394 752.28457 1163.2546 L 751.09722 1110.3197 M 518.37798 1182.0379 L 518.37798 1183.7459 L 521.94001 1183.7459 L 518.37798 1182.0379 z "
     id="path578" />
  <path
     style="font-size:12;fill:#6c5b79;fill-opacity:1;"
     d="M -40.860623 591.97812 L -40.860623 1183.7479 C -30.237156 1182.5959 -23.734861 1162.9491 -21.4142 1149.932 C -17.019842 1125.2826 -9.3566112 1084.0024 12.569819 1080.6109 C 11.766108 1073.1676 14.449615 1063.6961 18.506524 1073.8478 C 31.765466 1073.247 41.509168 1057.437 50.517181 1045.3983 C 77.004671 1009.9977 92.214417 964.44291 94.377753 912.74253 C 95.136461 894.58538 105.31437 876.16272 94.092794 859.48158 C 82.272795 841.91111 70.054195 860.24413 64.951237 876.02747 C 57.737172 898.34223 61.798012 920.89037 48.189156 940.27506 C 45.127119 944.63724 41.162699 952.17977 36.316679 951.69282 C 32.133067 951.2735 27.01527 946.56641 23.255896 944.02856 C 19.14116 941.25061 14.724848 938.31039 11.671942 933.33612 C 3.1943175 919.5225 23.90419 884.5997 26.693377 869.26438 C 30.324628 849.29977 39.858043 828.73495 41.641429 808.39669 C 44.555413 775.16631 39.512764 740.38358 42.47329 706.9505 C 43.663482 693.50955 51.954694 683.6429 51.682558 669.75357 C 51.162149 643.19899 38.035945 615.09926 22.068553 602.92638 C 15.047089 597.57352 3.3129336 601.80002 -0.49095812 591.97812 L -40.860623 591.97812 z "
     id="path575" />
  <path
     style="font-size:12;fill:#6c5b79;fill-opacity:1;"
     d="M 716.66427 1183.7479 L 752.28457 1183.7479 L 752.28457 1163.458 C 740.41469 1162.9069 747.52926 1156.5954 747.00089 1146.4847 C 746.71474 1141.0102 743.38068 1136.9436 743.30944 1131.3334 C 743.18714 1121.6537 750.49643 1116.5566 751.9248 1107.6561 C 754.57257 1091.1596 752.28457 1070.4815 752.28457 1053.5579 C 738.33328 1054.8888 732.43931 1073.7356 729.3261 1090.7553 C 726.20932 1107.7877 722.07262 1125.8236 720.44952 1143.169 C 719.08408 1157.7775 721.00519 1169.8057 716.66427 1183.7479 z M 212.04346 1183.7479 L 612.17808 1183.7479 C 607.04044 1176.4448 601.97524 1178.6026 595.55527 1176.1426 C 582.98487 1171.3224 564.74016 1171.1713 554.05051 1159.3432 C 546.24135 1150.7016 550.24982 1138.2845 545.21905 1127.9774 C 537.25673 1111.6581 524.1259 1107.2518 517.57533 1089.0641 C 512.20617 1074.1533 516.58034 1054.3664 501.75518 1048.466 C 485.82934 1042.1256 471.07541 1057.6382 457.82348 1066.8139 C 453.92068 1069.5144 449.613 1069.3363 445.9548 1073.0259 C 438.78681 1080.2539 434.35801 1089.4279 425.76521 1094.1537 C 403.1772 1106.5759 378.82242 1101.0771 355.71197 1110.4308 C 344.0012 1115.1702 333.67489 1126.9172 322.46636 1133.5654 C 315.86474 1137.4827 308.83685 1134.6422 302.28153 1138.085 C 288.52379 1145.3083 275.66605 1156.9643 261.91187 1163.7711 C 246.36123 1171.4674 223.36121 1162.0565 212.04346 1183.7479 M 54.126824 1182.0566 L 54.126824 1183.7479 L 79.061027 1183.7479 C 80.64019 1163.5618 96.430665 1153.6081 106.36992 1142.5099 C 114.11615 1133.8583 120.78783 1122.6378 127.74209 1112.7356 C 132.27774 1106.2763 138.50893 1099.9867 139.61552 1090.7553 C 144.76385 1089.524 148.12403 1083.8654 152.67631 1080.2656 C 162.0385 1072.8655 181.25447 1071.9524 184.73457 1055.2491 C 176.66539 1054.0722 167.40054 1040.2844 159.80037 1042.7679 C 143.38179 1048.1326 127.52837 1073.3931 115.86866 1088.9898 C 100.87134 1109.0527 83.670296 1124.6434 69.979156 1147.5244 C 63.522389 1158.3153 62.358193 1173.2329 54.126824 1182.0566 M 625.23886 1182.0566 L 625.23886 1183.7479 L 656.10977 1183.7479 C 649.56633 1135.3951 652.80184 1084.0362 647.54546 1034.9602 C 646.51841 1025.3667 634.40276 989.28205 626.43688 1006.3233 C 620.40518 1019.229 627.79283 1030.6098 628.67621 1043.4134 C 629.75551 1059.0585 627.58029 1075.1575 628.9588 1090.7553 C 631.6505 1121.2293 647.10021 1157.7503 625.23886 1182.0566 M 682.23132 591.97812 L 682.23132 593.6689 C 688.86263 593.6689 697.72734 591.45698 703.60349 596.61472 C 706.8937 596.34969 711.7083 606.27275 715.47218 611.05934 C 750.20315 655.21953 687.35351 692.06682 686.98545 737.38436 C 686.70523 771.81519 708.99879 763.93114 723.88451 776.91452 C 733.75489 785.52394 722.40032 789.46178 726.21882 799.63174 C 729.56831 808.54887 738.41521 806.83611 739.15374 818.56669 C 743.76182 891.6823 679.99436 917.04895 666.79586 977.47367 L 672.73258 979.16445 L 673.19802 1007.9072 L 689.82675 1028.8563 L 696.47944 1058.6307 C 716.59659 1058.6307 743.34862 1055.1057 751.31332 1023.1245 C 754.35767 1010.9001 752.28457 993.72024 752.28457 980.85523 L 752.28457 892.93517 L 752.28457 591.97812 L 686.27273 592.9881 M 83.810399 591.97812 L 83.810399 593.6689 C 95.667203 596.80322 108.54632 595.33753 120.61804 595.35973 C 124.22519 595.36631 131.46323 593.63421 133.51615 599.27871 C 135.46932 604.64611 131.16758 610.47807 128.8772 613.95813 C 122.5071 623.63782 114.02591 631.7809 108.73511 642.72593 C 101.79271 657.09053 99.85616 677.82835 94.28989 693.42432 C 89.868228 705.81074 82.745352 717.61164 81.766986 732.31202 C 81.351413 738.56398 84.185604 743.52369 85.420432 749.21971 C 90.730234 773.7207 99.682806 794.00993 118.13649 801.91597 C 126.40041 805.45478 131.87642 798.75931 139.61552 796.78616 C 156.59335 792.45444 181.33401 797.4304 195.2188 780.32143 C 214.09756 757.05934 221.69656 731.48035 234.30021 701.9448 C 239.9104 688.79636 247.15913 678.81896 252.11985 664.68124 C 259.3662 644.02851 257.90815 616.01092 274.97265 603.8605 C 280.76807 599.73389 290.01628 602.12568 296.34482 602.1228 C 319.64643 602.11211 344.07601 611.48965 362.83603 633.13201 C 369.9221 641.30619 372.26116 653.394 378.66212 661.83469 C 387.15638 673.03703 398.20935 678.47048 404.69937 693.42432 C 409.02012 703.38179 404.53671 715.17641 407.37801 725.54759 C 411.60971 740.99668 433.18255 754.47416 427.77658 774.58131 C 420.70595 800.87614 407.68198 796.12678 391.33227 796.60357 C 380.02163 796.93158 365.56692 800.55493 354.51988 797.02795 C 337.57174 791.61746 318.57425 778.72875 301.09419 777.98818 C 291.72605 777.59252 277.80921 774.6117 269.03593 779.66883 C 255.0609 787.72532 244.75714 812.94826 233.41563 826.63503 C 223.99407 838.00546 213.20824 844.89871 206.52469 860.81054 C 197.27884 882.8193 194.48384 909.24432 183.97823 930.1321 C 176.88979 944.22638 165.63853 959.23535 156.12791 970.11712 C 153.05863 973.62715 144.61068 977.30967 144.61068 984.08457 C 144.61068 992.84958 165.80357 995.41442 170.48645 999.10877 C 178.65419 1005.5519 185.81861 1016.6146 195.42065 1019.0513 C 206.02125 1021.7413 217.67502 1005.0127 227.47892 1000.7265 C 232.55243 998.50859 238.00947 1000.1164 242.71253 995.91999 C 254.69994 985.22585 261.22558 971.16879 270.47617 957.36873 C 273.5787 952.73938 277.67859 949.47451 282.09551 952.44012 C 285.58274 954.78355 291.25943 961.76302 289.78831 968.04594 C 288.53684 973.38537 284.54382 977.70191 282.51465 982.54599 C 272.51128 1006.4178 266.88565 1028.5617 278.49431 1053.5512 C 290.19319 1078.7374 310.69504 1080.6565 329.59042 1080.6109 C 348.12366 1080.567 364.22997 1064.0898 380.30778 1054.3428 C 385.52141 1051.1809 391.82264 1054.9782 397.26898 1051.8524 C 406.23342 1046.7055 414.2005 1035.2572 422.20319 1027.6796 C 427.61035 1022.56 434.87214 1020.6004 439.55026 1014.0045 C 443.01731 1009.1166 444.6784 1002.5763 448.32473 997.76293 L 448.32473 994.38135 C 439.10977 985.18357 425.25941 976.6029 424.57787 958.87518 C 420.21201 958.87518 415.10525 960.02156 410.83319 958.74499 C 401.76664 956.03473 396.85341 939.4922 401.71202 928.44809 C 406.83066 916.81054 419.30607 909.08372 428.1399 904.71309 C 437.12096 900.26973 447.3713 904.73166 456.63613 902.71964 C 464.18645 901.08128 476.97057 898.61449 483.94502 894.61071 C 488.71339 891.87167 491.98215 885.46874 497.0058 883.52434 C 507.18015 879.58485 518.69143 884.93106 529.05931 882.23428 C 535.59682 880.53335 540.05886 872.59861 545.68687 868.09606 C 564.89333 852.7354 579.85742 843.36857 581.30716 808.39669 L 586.05653 808.39669 C 580.8061 784.1764 563.77129 765.44603 551.62358 749.14672 C 531.53255 722.18702 513.26053 686.40799 486.31971 673.07778 C 480.54922 670.22224 474.15657 673.26125 468.50956 670.18929 C 462.87325 667.12323 459.40858 659.06383 454.26145 654.78704 C 447.08396 648.82354 437.15303 644.39216 429.32724 639.91452 C 421.81255 635.61487 413.99627 639.57873 408.35045 629.1007 C 403.41467 619.93844 410.89493 609.32717 417.59274 608.56883 C 436.29814 606.45083 452.87344 612.41565 470.88425 613.88514 C 477.82902 614.45168 489.68701 610.31367 495.06212 618.07298 C 503.9197 630.8599 509.13213 649.29439 517.74275 662.50779 C 535.21568 689.32269 557.23021 713.76378 577.52191 735.63489 C 581.38671 739.80027 582.52656 746.87294 586.3225 751.02144 C 594.25276 759.68744 612.0166 764.32002 621.61152 759.69575 C 643.88726 748.96056 613.24431 716.50858 615.11913 703.56894 C 617.63749 686.18091 635.74209 682.30193 641.48408 666.37201 C 647.69626 649.13866 636.4355 634.03824 638.57153 617.36571 C 640.79542 600.01042 742.20634 591.94254 752.27382 591.90147 L 628.80089 591.97812 L 506.50455 591.97812 L 83.810399 591.97812 "
     id="path577"
     sodipodi:nodetypes="cccccccccccccccccccccccccccccccccccccccccccccccccccccccccccccccccccccccccccccccccccccccccccccccccccccccccccccccccccccccccccccccccccccccccccc" />
  <g
     id="g783"
     transform="matrix(1.684988,0.000000,0.000000,1.701127,-1678.907,-713.3988)">
    <path
       d="M 367.86687 491.33023 C 372.10937 487.08108 378.59771 491.27023 376.48144 495.31689 C 373.99839 499.74017 363.69046 495.51321 367.86687 491.33023 z M 353.15206 510.40234 C 360.93814 511.72564 338.4337 509.35727 337.97047 494.06881 C 336.79617 483.51507 350.87559 467.84401 364.91049 467.54094 C 383.73477 466.97235 408.11965 491.07993 409.81341 504.73776 C 411.72008 519.93146 376.13962 546.31579 354.28949 549.38428 C 340.4674 550.29434 335.3955 537.61281 337.04139 529.5807 C 338.73474 521.64178 353.47874 512.44742 353.15206 510.40234 z "
       style="font-size:12;fill-rule:evenodd;stroke-width:2.54998;stroke-linejoin:round;"
       id="path643"
       sodipodi:nodetypes="cccccccccc"
       transform="matrix(2.357430,0.000000,0.000000,2.357430,189.9487,-246.5824)" />
    <path
       d="M 353.15206 507.27661 C 352.46648 505.23093 339.13967 501.72624 337.97047 492.13396 C 336.79617 482.34968 350.87559 467.82119 364.91049 467.54022 C 383.73477 467.01308 408.11965 489.36299 409.81341 502.02503 C 411.72008 516.11097 364.81326 546.38389 351.54999 544.72539 C 338.66027 543.26407 335.3955 532.50318 337.04139 525.05668 C 338.73474 517.69659 353.47874 509.17259 353.15206 507.27661 z M 367.1609 486.97704 C 371.4034 483.03769 378.59771 489.53941 376.48144 493.29104 C 373.99839 497.39182 362.98449 490.85504 367.1609 486.97704 z "
       style="font-size:12;fill:#8a75a1;fill-rule:evenodd;stroke-width:2.54998;stroke-linejoin:round;fill-opacity:1;"
       id="path644"
       transform="matrix(2.357430,0.000000,0.000000,2.357430,189.9487,-246.5824)" />
    <path
       d="M 356.74133 506.50489 C 356.15993 504.75382 340.76286 499.09152 341.24653 491.37241 C 340.25067 482.99722 354.56493 468.43263 366.46713 470.27838 C 382.43093 469.82715 403.51772 489.0005 404.9541 499.83901 C 406.57103 511.89635 373.26893 527.93264 359.56244 533.39725 C 350.1066 536.81786 337.74914 535.22856 338.89906 525.65821 C 340.33509 519.35809 357.01837 508.12782 356.74133 506.50489 z M 363.7041 484.45733 C 369.51472 479.85597 380.28728 487.38827 377.26325 493.79587 C 372.45299 499.273 358.44127 492.20242 363.7041 484.45733 z "
       style="font-size:12;fill:url(#radialGradient635);fill-opacity:0.575397;fill-rule:evenodd;stroke-width:2.54998;stroke-linejoin:round;"
       id="path645"
       sodipodi:nodetypes="cccccccccc"
       transform="matrix(2.357430,0.000000,0.000000,2.357430,189.9487,-246.5824)" />
    <path
       d="M 356.74133 506.50489 C 356.15993 504.75382 340.76286 499.09152 341.24653 491.37241 C 340.25067 482.99722 354.56493 468.43263 366.46713 470.27838 C 382.43093 469.82715 403.51772 489.0005 404.9541 499.83901 C 406.57103 511.89635 373.26893 527.93264 359.56244 533.39725 C 350.1066 536.81786 337.74914 535.22856 338.89906 525.65821 C 340.33509 519.35809 357.01837 508.12782 356.74133 506.50489 z M 363.7041 484.45733 C 369.51472 479.85597 380.28728 487.38827 377.26325 493.79587 C 372.45299 499.273 358.44127 492.20242 363.7041 484.45733 z "
       style="font-size:12;fill:url(#radialGradient635);fill-opacity:0.575397;fill-rule:evenodd;stroke-width:2.54998;stroke-linejoin:round;"
       id="path646"
       sodipodi:nodetypes="cccccccccc"
       transform="matrix(2.357430,0.000000,0.000000,2.357430,189.9487,-246.5824)" />
  </g>
  <g
     id="g967"
     transform="matrix(1.391437,0.000000,0.000000,1.404770,-1182.784,-721.9773)">
    <path
       style="font-size:12;fill-rule:evenodd;stroke-width:2.23923;"
       d="M 373.39756 1057.276 C 380.87357 1057.4135 394.46632 1060.0247 395.82561 1057.6883 C 397.7286 1058.2381 397.08058 1051.0674 396.94465 1048.731 C 398.30394 1037.0492 415.41968 1039.2721 416.77894 1049.03 C 415.96336 1059.0627 417.84584 1054.6648 417.84584 1056.8637 C 416.89434 1059.4749 433.88528 1057.1386 441.90501 1057.276 C 451.69178 1056.7263 452.91512 1074.3179 441.90501 1074.1804 C 433.88528 1074.043 418.90301 1072.2125 417.84584 1073.7681 C 414.44766 1075.5547 420.42846 1101.2549 420.70033 1114.9983 C 420.83625 1128.3294 396.50524 1130.9406 394.60224 1116.6475 C 394.73816 1102.0795 396.5753 1076.4225 395.01003 1072.9435 C 393.51485 1069.6451 380.60171 1072.9435 373.39756 1072.9435 C 367.28083 1074.3179 363.61078 1059.6124 373.39756 1057.276 z "
       id="path648"
       sodipodi:nodetypes="ccccccccccccc"
       transform="translate(799.9215,53.64350)" />
    <path
       style="font-size:12;fill-rule:evenodd;stroke-width:2.23923;"
       d="M 301.0284 1111.6374 C 295.42376 1110.2465 291.24161 1103.3458 296.13502 1089.2094 C 300.21209 1078.8789 306.32805 1068.1406 324.27199 1061.0724 C 330.93242 1058.6257 337.59288 1058.6257 344.25332 1060.6646 C 367.08911 1069.6358 376.87591 1082.2771 382.17706 1098.5884 C 386.00283 1105.6361 378.77888 1114.6278 367.90469 1111.6374 C 357.30444 1108.3774 340.5833 1090.4327 331.20429 1079.8304 C 326.44685 1090.9764 321.68936 1104.1614 314.48522 1109.5985 C 311.22296 1112.0452 306.22526 1112.4316 301.0284 1111.6374 z "
       id="path649"
       sodipodi:nodetypes="ccccccccc"
       transform="translate(799.9215,53.64350)" />
    <path
       d="M 267.06598 1089.4925 C 273.21637 1088.9779 285.08665 1085.661 286.04854 1075.9615 C 285.79715 1063.3964 274.21438 1056.7198 262.66821 1056.4357 C 247.18199 1055.9027 229.96185 1070.4881 228.97429 1086.8536 C 227.40572 1101.0971 259.09588 1117.4607 274.4712 1115.3385 C 286.00758 1115.1039 294.25412 1108.0624 292.90008 1100.5326 C 293.13028 1085.9664 263.95654 1090.0739 267.06598 1089.4925 z M 264.3742 1073.8129 C 260.88401 1069.8295 256.08784 1073.2454 257.82886 1077.0389 C 259.87159 1081.1856 267.81 1077.7343 264.3742 1073.8129 z "
       style="font-size:12;fill-rule:evenodd;stroke-width:2.23117;stroke-linejoin:round;"
       id="path650"
       sodipodi:nodetypes="cccccccccc"
       transform="translate(799.9215,53.64350)" />
    <path
       d="M 185.68719 1070.7988 C 189.92969 1066.5497 196.41803 1070.7388 194.30176 1074.7855 C 191.81871 1079.2088 181.51078 1074.9818 185.68719 1070.7988 z M 170.97238 1089.871 C 178.75846 1091.1943 156.25402 1088.8259 155.79079 1073.5374 C 154.61649 1062.9837 168.69591 1047.3126 182.73081 1047.0096 C 201.55509 1046.441 225.93997 1070.5485 227.63373 1084.2064 C 229.5404 1099.4001 193.95994 1125.7844 172.10981 1128.8529 C 158.28772 1129.7629 153.21582 1117.0814 154.86171 1109.0493 C 156.55506 1101.1104 171.29906 1091.916 170.97238 1089.871 z "
       style="font-size:12;fill-rule:evenodd;stroke-width:2.54998;stroke-linejoin:round;"
       id="path651"
       sodipodi:nodetypes="cccccccccc"
       transform="translate(799.9215,53.64350)" />
    <path
       d="M 170.97238 1086.7452 C 170.2868 1084.6995 156.95999 1081.1949 155.79079 1071.6026 C 154.61649 1061.8183 168.69591 1047.2898 182.73081 1047.0088 C 201.55509 1046.4817 225.93997 1068.8316 227.63373 1081.4936 C 229.5404 1095.5796 182.63358 1125.8525 169.37031 1124.194 C 156.48059 1122.7327 153.21582 1111.9718 154.86171 1104.5253 C 156.55506 1097.1652 171.29906 1088.6412 170.97238 1086.7452 z M 184.98122 1066.4457 C 189.22372 1062.5063 196.41803 1069.008 194.30176 1072.7597 C 191.81871 1076.8604 180.80481 1070.3237 184.98122 1066.4457 z "
       style="font-size:12;fill:#8a75a1;fill-rule:evenodd;stroke-width:2.54998;stroke-linejoin:round;"
       id="path653"
       transform="translate(799.9215,53.64350)" />
    <path
       d="M 267.2509 1086.7101 C 273.1188 1084.8156 285.35892 1083.201 286.32547 1074.3175 C 286.07286 1062.8095 274.43395 1056.6947 262.83181 1056.4345 C 247.27052 1055.9463 229.96691 1069.3046 228.97456 1084.2933 C 227.39839 1097.3384 259.24216 1112.3253 274.69201 1110.3816 C 285.34742 1109.0282 294.57083 1105.9948 293.21022 1099.0985 C 293.44154 1085.7578 264.12638 1087.2426 267.2509 1086.7101 z M 264.23377 1070.3572 C 260.72666 1066.709 255.59495 1070.6913 257.34441 1074.1658 C 259.39704 1077.9635 267.68623 1073.9487 264.23377 1070.3572 z "
       style="font-size:12;fill:#8a75a1;fill-rule:evenodd;stroke-width:2.23117;stroke-linejoin:round;"
       id="path654"
       sodipodi:nodetypes="cccccccccc"
       transform="translate(799.9215,53.64350)" />
    <path
       style="font-size:12;fill:#ff2623;fill-rule:evenodd;stroke-width:2.23923;"
       d="M 301.0284 1107.5153 C 296.13502 1106.8357 291.24161 1099.2238 296.13502 1085.0873 C 300.21209 1074.7568 306.32805 1064.0186 324.27199 1056.9503 C 330.93242 1054.5037 337.59288 1054.5037 344.25332 1056.5425 C 367.08911 1065.5137 376.87591 1078.155 382.17706 1094.4663 C 384.75968 1104.9327 378.77888 1110.5057 367.90469 1107.5153 C 357.30444 1104.2553 340.5833 1086.3107 331.20429 1075.7083 C 326.44685 1086.8544 321.68936 1100.0393 314.48522 1105.4764 C 311.22296 1107.9231 305.514 1109.5542 301.0284 1107.5153 z "
       id="path655"
       sodipodi:nodetypes="ccccccccc"
       transform="translate(799.9215,53.64350)" />
    <path
       style="font-size:12;fill:#8a75a1;fill-rule:evenodd;stroke-width:2.23923;"
       d="M 373.39756 1054.0959 C 374.17122 1053.9511 394.46632 1056.8144 395.82561 1054.5037 C 396.74606 1053.6788 396.36932 1048.6588 396.23339 1046.348 C 397.59268 1034.7942 416.48658 1036.2894 417.84584 1045.9402 C 418.01281 1047.3709 417.9862 1046.9163 417.84584 1053.6881 C 417.94706 1056.3409 433.88528 1053.9599 441.90501 1054.0959 C 451.69178 1053.5522 452.91512 1070.9509 441.90501 1070.8149 C 433.88528 1070.679 418.20119 1069.6186 417.84584 1070.4071 C 414.23712 1072.0338 420.42846 1097.5926 420.70033 1111.1854 C 420.83625 1124.3703 396.50524 1126.9529 394.60224 1112.8165 C 394.73816 1098.4082 396.99167 1070.9218 395.36094 1069.4161 C 393.86576 1066.1539 380.60171 1069.5916 373.39756 1069.5916 C 367.28083 1070.9509 363.61078 1056.4066 373.39756 1054.0959 z "
       id="path656"
       sodipodi:nodetypes="ccccccccccccc"
       transform="translate(799.9215,53.64350)" />
    <path
       d="M 174.56165 1085.9735 C 173.98025 1084.2224 158.58318 1078.5601 159.06685 1070.841 C 158.07099 1062.4658 172.38525 1047.9012 184.28745 1049.747 C 200.25125 1049.2958 221.33804 1068.4691 222.77442 1079.3076 C 224.39135 1091.365 191.08925 1107.4012 177.38276 1112.8658 C 167.92692 1116.2865 155.56946 1114.6972 156.71938 1105.1268 C 158.15541 1098.8267 174.83869 1087.5964 174.56165 1085.9735 z M 181.52442 1063.9259 C 187.33504 1059.3246 198.1076 1066.8569 195.08357 1073.2645 C 190.27331 1078.7416 176.26159 1071.671 181.52442 1063.9259 z "
       style="font-size:12;fill:url(#radialGradient635);fill-opacity:0.575397;fill-rule:evenodd;stroke-width:2.54998;stroke-linejoin:round;"
       id="path658"
       sodipodi:nodetypes="cccccccccc"
       transform="translate(799.9215,53.64350)" />
    <path
       style="font-size:12;fill:#8a75a1;fill-rule:evenodd;stroke-width:2.23923;"
       d="M 301.0284 1107.5153 C 296.13502 1106.8357 291.24161 1099.2238 296.13502 1085.0873 C 300.21209 1074.7568 306.32805 1064.0186 324.27199 1056.9503 C 330.93242 1054.5037 337.59288 1054.5037 344.25332 1056.5425 C 367.08911 1065.5137 376.87591 1078.155 382.17706 1094.4663 C 384.75968 1104.9327 378.77888 1110.5057 367.90469 1107.5153 C 357.30444 1104.2553 340.5833 1086.3107 331.20429 1075.7083 C 326.44685 1086.8544 321.68936 1100.0393 314.48522 1105.4764 C 311.22296 1107.9231 305.514 1109.5542 301.0284 1107.5153 z "
       id="path659"
       sodipodi:nodetypes="ccccccccc"
       transform="translate(799.9215,53.64350)" />
    <path
       d="M 174.56165 1085.9735 C 173.98025 1084.2224 158.58318 1078.5601 159.06685 1070.841 C 158.07099 1062.4658 172.38525 1047.9012 184.28745 1049.747 C 200.25125 1049.2958 221.33804 1068.4691 222.77442 1079.3076 C 224.39135 1091.365 191.08925 1107.4012 177.38276 1112.8658 C 167.92692 1116.2865 155.56946 1114.6972 156.71938 1105.1268 C 158.15541 1098.8267 174.83869 1087.5964 174.56165 1085.9735 z M 181.52442 1063.9259 C 187.33504 1059.3246 198.1076 1066.8569 195.08357 1073.2645 C 190.27331 1078.7416 176.26159 1071.671 181.52442 1063.9259 z "
       style="font-size:12;fill:url(#radialGradient635);fill-opacity:0.575397;fill-rule:evenodd;stroke-width:2.54998;stroke-linejoin:round;"
       id="path661"
       sodipodi:nodetypes="cccccccccc"
       transform="translate(799.9215,53.64350)" />
    <path
       d="M 268.11125 1068.7029 C 264.44118 1063.0524 252.80573 1069.0084 256.25695 1075.4256 C 259.9854 1079.3614 272.19419 1073.8386 268.11125 1068.7029 z M 262.5394 1086.8974 C 267.90558 1084.702 282.33899 1082.2998 283.22289 1074.1758 C 282.99188 1063.6518 273.73662 1058.9855 263.12649 1058.7475 C 248.89573 1058.3011 232.60878 1068.6659 231.70128 1082.373 C 230.25987 1094.3027 246.42159 1101.0657 261.93895 1104.3794 C 274.4603 1107.3072 289.8376 1105.9217 290.44465 1099.1522 C 290.65619 1086.9521 264.7732 1089.6985 262.5394 1086.8974 z "
       style="font-size:12;fill:#ffffff;fill-opacity:0.670635;fill-rule:evenodd;stroke-width:2.23117;stroke-linejoin:round;"
       id="path662"
       sodipodi:nodetypes="cccccccccc"
       transform="translate(799.9215,53.64350)" />
    <path
       style="font-size:12;fill:#ffffff;fill-opacity:0.67;fill-rule:evenodd;stroke-width:2.23923;"
       d="M 300.89948 1101.8968 C 297.45243 1099.8673 294.08881 1097.8051 298.26091 1085.7524 C 301.73701 1076.9447 309.72844 1065.0123 325.02736 1058.986 C 330.70602 1056.9 338.23603 1057.8256 343.91469 1059.564 C 363.38438 1067.2128 375.43123 1080.7676 379.95096 1094.6746 C 382.15289 1103.5982 374.27669 1107.8869 365.00541 1103.486 C 358.28184 1099.318 342.63698 1084.4813 330.47498 1070.3506 C 326.4188 1079.8537 318.65992 1094.7978 312.51771 1099.4334 C 309.73632 1101.5195 304.28886 1103.7802 300.89948 1101.8968 z "
       id="path663"
       sodipodi:nodetypes="ccccccccc"
       transform="translate(799.9215,53.64350)" />
    <path
       style="font-size:12;fill:#ffffff;fill-opacity:0.670635;fill-rule:evenodd;stroke-width:2.23923;"
       d="M 375.69859 1055.731 C 382.13303 1055.8479 396.14619 1057.6079 397.3161 1055.6191 C 398.53287 1053.8763 397.78406 1050.5885 397.66706 1048.5997 C 397.91131 1035.8786 416.48706 1038.5539 416.26845 1048.2487 C 416.05776 1056.403 416.30354 1054.9051 416.26845 1054.9172 C 415.44951 1057.1399 434.23876 1055.614 441.14117 1055.731 C 449.56442 1055.263 450.61732 1067.4607 441.14117 1067.3437 C 434.23876 1067.2267 415.68863 1064.1901 415.80562 1066.5299 C 412.88087 1068.0508 418.49125 1092.7049 418.72524 1104.4038 C 419.7679 1116.2147 399.75238 1120.7517 398.1145 1106.7334 C 395.45448 1098.9608 398.95395 1069.154 397.53981 1066.2908 C 396.25295 1063.483 380.97338 1065.828 374.77292 1065.828 C 368.11987 1067.4607 364.96113 1055.8685 375.69859 1055.731 z "
       id="path664"
       sodipodi:nodetypes="ccccccccccccc"
       transform="translate(799.9215,53.64350)" />
    <path
       style="font-size:12;fill:#ffffff;fill-opacity:0.67;fill-rule:evenodd;stroke-width:1pt;"
       d="M 255.05706 1073.4903 C 255.00873 1068.4635 258.44051 1067.0618 261.43727 1066.095 C 255.10541 1065.7567 253.55868 1068.3185 255.05706 1073.4903 z "
       id="path669"
       sodipodi:nodetypes="ccc"
       transform="translate(799.9215,53.64350)" />
    <path
       d="M 268.11125 1068.7029 C 264.44118 1063.0524 252.80573 1069.0084 256.25695 1075.4256 C 259.9854 1079.3614 272.19419 1073.8386 268.11125 1068.7029 z M 262.5394 1086.8974 C 267.90558 1084.702 282.33899 1082.2998 283.22289 1074.1758 C 282.99188 1063.6518 273.73662 1058.9855 263.12649 1058.7475 C 248.89573 1058.3011 232.60878 1068.6659 231.70128 1082.373 C 230.25987 1094.3027 246.42159 1101.0657 261.93895 1104.3794 C 274.4603 1107.3072 289.8376 1105.9217 290.44465 1099.1522 C 290.65619 1086.9521 264.7732 1089.6985 262.5394 1086.8974 z "
       style="font-size:12;fill:url(#linearGradient669);fill-opacity:0.670635;fill-rule:evenodd;stroke-width:2.23117;stroke-linejoin:round;"
       id="path670"
       sodipodi:nodetypes="cccccccccc"
       transform="translate(799.9215,53.64350)" />
    <path
       style="font-size:12;fill:#ffffff;fill-opacity:0.67;fill-rule:evenodd;stroke-width:1pt;"
       d="M 280.99107 1068.9674 C 281.48078 1076.8906 273.82834 1081.3713 271.13813 1083.0077 C 280.56548 1080.9958 284.66491 1074.5197 280.99107 1068.9674 z "
       id="path671"
       sodipodi:nodetypes="ccc"
       transform="translate(799.9215,53.64350)" />
    <path
       style="font-size:12;fill:#ffffff;fill-opacity:0.670635;fill-rule:evenodd;stroke-width:1pt;"
       d="M 304.06866 1101.4762 C 316.10406 1102.6846 324.80435 1079.3872 329.4445 1071.1702 C 328.71947 1069.0918 315.81405 1099.4945 304.06866 1101.4762 z "
       id="path672"
       sodipodi:nodetypes="ccc"
       transform="translate(799.9215,53.64350)" />
    <path
       style="font-size:12;fill:#ffffff;fill-opacity:0.67;fill-rule:evenodd;stroke-width:1pt;"
       d="M 378.39355 1093.5111 C 378.88326 1101.4343 374.56593 1103.4498 369.41064 1104.3612 C 377.82295 1105.9745 382.06739 1099.0634 378.39355 1093.5111 z "
       id="path673"
       sodipodi:nodetypes="ccc"
       transform="translate(799.9215,53.64350)" />
    <path
       style="font-size:12;fill:url(#linearGradient727);fill-opacity:0.670635;fill-rule:evenodd;stroke-width:2.23923;"
       d="M 375.69859 1055.731 C 382.13303 1055.8479 396.14619 1057.6079 397.3161 1055.6191 C 398.53287 1053.8763 397.78406 1050.5885 397.66706 1048.5997 C 397.91131 1035.8786 416.48706 1038.5539 416.26845 1048.2487 C 416.05776 1056.403 416.30354 1054.9051 416.26845 1054.9172 C 415.44951 1057.1399 434.23876 1055.614 441.14117 1055.731 C 449.56442 1055.263 450.61732 1067.4607 441.14117 1067.3437 C 434.23876 1067.2267 415.68863 1064.1901 415.80562 1066.5299 C 412.88087 1068.0508 418.49125 1092.7049 418.72524 1104.4038 C 419.7679 1116.2147 399.75238 1120.7517 398.1145 1106.7334 C 395.45448 1098.9608 398.95395 1069.154 397.53981 1066.2908 C 396.25295 1063.483 380.97338 1065.828 374.77292 1065.828 C 368.11987 1067.4607 364.96113 1055.8685 375.69859 1055.731 z "
       id="path682"
       sodipodi:nodetypes="ccccccccccccc"
       transform="translate(799.9215,53.64350)" />
    <path
       style="font-size:12;fill-rule:evenodd;stroke-width:2.23923;"
       d="M 373.39756 1057.276 C 380.87357 1057.4135 394.46632 1060.0247 395.82561 1057.6883 C 397.7286 1058.2381 397.08058 1051.0674 396.94465 1048.731 C 398.30394 1037.0492 415.41968 1039.2721 416.77894 1049.03 C 415.96336 1059.0627 417.84584 1054.6648 417.84584 1056.8637 C 416.89434 1059.4749 433.88528 1057.1386 441.90501 1057.276 C 451.69178 1056.7263 452.91512 1074.3179 441.90501 1074.1804 C 433.88528 1074.043 418.90301 1072.2125 417.84584 1073.7681 C 414.44766 1075.5547 420.42846 1101.2549 420.70033 1114.9983 C 420.83625 1128.3294 396.50524 1130.9406 394.60224 1116.6475 C 394.73816 1102.0795 396.5753 1076.4225 395.01003 1072.9435 C 393.51485 1069.6451 380.60171 1072.9435 373.39756 1072.9435 C 367.28083 1074.3179 363.61078 1059.6124 373.39756 1057.276 z "
       id="path826"
       sodipodi:nodetypes="ccccccccccccc"
       transform="translate(799.9215,53.64350)" />
    <path
       style="font-size:12;fill-rule:evenodd;stroke-width:2.23923;"
       d="M 301.0284 1111.6374 C 295.42376 1110.2465 291.24161 1103.3458 296.13502 1089.2094 C 300.21209 1078.8789 306.32805 1068.1406 324.27199 1061.0724 C 330.93242 1058.6257 337.59288 1058.6257 344.25332 1060.6646 C 367.08911 1069.6358 376.87591 1082.2771 382.17706 1098.5884 C 386.00283 1105.6361 378.77888 1114.6278 367.90469 1111.6374 C 357.30444 1108.3774 340.5833 1090.4327 331.20429 1079.8304 C 326.44685 1090.9764 321.68936 1104.1614 314.48522 1109.5985 C 311.22296 1112.0452 306.22526 1112.4316 301.0284 1111.6374 z "
       id="path827"
       sodipodi:nodetypes="ccccccccc"
       transform="translate(799.9215,53.64350)" />
    <path
       d="M 267.06598 1089.4925 C 273.21637 1088.9779 285.08665 1085.661 286.04854 1075.9615 C 285.79715 1063.3964 274.21438 1056.7198 262.66821 1056.4357 C 247.18199 1055.9027 229.96185 1070.4881 228.97429 1086.8536 C 227.40572 1101.0971 259.09588 1117.4607 274.4712 1115.3385 C 286.00758 1115.1039 294.25412 1108.0624 292.90008 1100.5326 C 293.13028 1085.9664 263.95654 1090.0739 267.06598 1089.4925 z M 264.3742 1073.8129 C 260.88401 1069.8295 256.08784 1073.2454 257.82886 1077.0389 C 259.87159 1081.1856 267.81 1077.7343 264.3742 1073.8129 z "
       style="font-size:12;fill-rule:evenodd;stroke-width:2.23117;stroke-linejoin:round;"
       id="path828"
       sodipodi:nodetypes="cccccccccc"
       transform="translate(799.9215,53.64350)" />
    <path
       d="M 185.68719 1070.7988 C 189.92969 1066.5497 196.41803 1070.7388 194.30176 1074.7855 C 191.81871 1079.2088 181.51078 1074.9818 185.68719 1070.7988 z M 170.97238 1089.871 C 178.75846 1091.1943 156.25402 1088.8259 155.79079 1073.5374 C 154.61649 1062.9837 168.69591 1047.3126 182.73081 1047.0096 C 201.55509 1046.441 225.93997 1070.5485 227.63373 1084.2064 C 229.5404 1099.4001 193.95994 1125.7844 172.10981 1128.8529 C 158.28772 1129.7629 153.21582 1117.0814 154.86171 1109.0493 C 156.55506 1101.1104 171.29906 1091.916 170.97238 1089.871 z "
       style="font-size:12;fill-rule:evenodd;stroke-width:2.54998;stroke-linejoin:round;"
       id="path829"
       sodipodi:nodetypes="cccccccccc"
       transform="translate(799.9215,53.64350)" />
    <path
       d="M 170.97238 1086.7452 C 170.2868 1084.6995 156.95999 1081.1949 155.79079 1071.6026 C 154.61649 1061.8183 168.69591 1047.2898 182.73081 1047.0088 C 201.55509 1046.4817 225.93997 1068.8316 227.63373 1081.4936 C 229.5404 1095.5796 182.63358 1125.8525 169.37031 1124.194 C 156.48059 1122.7327 153.21582 1111.9718 154.86171 1104.5253 C 156.55506 1097.1652 171.29906 1088.6412 170.97238 1086.7452 z M 184.98122 1066.4457 C 189.22372 1062.5063 196.41803 1069.008 194.30176 1072.7597 C 191.81871 1076.8604 180.80481 1070.3237 184.98122 1066.4457 z "
       style="font-size:12;fill:#8a75a1;fill-rule:evenodd;stroke-width:2.54998;stroke-linejoin:round;"
       id="path831"
       transform="translate(799.9215,53.64350)" />
    <path
       d="M 267.2509 1086.7101 C 273.1188 1084.8156 285.35892 1083.201 286.32547 1074.3175 C 286.07286 1062.8095 274.43395 1056.6947 262.83181 1056.4345 C 247.27052 1055.9463 229.96691 1069.3046 228.97456 1084.2933 C 227.39839 1097.3384 259.24216 1112.3253 274.69201 1110.3816 C 285.34742 1109.0282 294.57083 1105.9948 293.21022 1099.0985 C 293.44154 1085.7578 264.12638 1087.2426 267.2509 1086.7101 z M 264.23377 1070.3572 C 260.72666 1066.709 255.59495 1070.6913 257.34441 1074.1658 C 259.39704 1077.9635 267.68623 1073.9487 264.23377 1070.3572 z "
       style="font-size:12;fill:#8a75a1;fill-rule:evenodd;stroke-width:2.23117;stroke-linejoin:round;"
       id="path832"
       sodipodi:nodetypes="cccccccccc"
       transform="translate(799.9215,53.64350)" />
    <path
       style="font-size:12;fill:#8a75a1;fill-rule:evenodd;stroke-width:2.23923;"
       d="M 301.0284 1107.5153 C 296.13502 1106.8357 291.24161 1099.2238 296.13502 1085.0873 C 300.21209 1074.7568 306.32805 1064.0186 324.27199 1056.9503 C 330.93242 1054.5037 337.59288 1054.5037 344.25332 1056.5425 C 367.08911 1065.5137 376.87591 1078.155 382.17706 1094.4663 C 384.75968 1104.9327 378.77888 1110.5057 367.90469 1107.5153 C 357.30444 1104.2553 340.5833 1086.3107 331.20429 1075.7083 C 326.44685 1086.8544 321.68936 1100.0393 314.48522 1105.4764 C 311.22296 1107.9231 305.514 1109.5542 301.0284 1107.5153 z "
       id="path837"
       sodipodi:nodetypes="ccccccccc"
       transform="translate(799.9215,53.64350)" />
    <path
       style="font-size:12;fill:#8a75a1;fill-rule:evenodd;stroke-width:2.23923;"
       d="M 373.39756 1054.0959 C 374.17122 1053.9511 394.46632 1056.8144 395.82561 1054.5037 C 396.74606 1053.6788 396.36932 1048.6588 396.23339 1046.348 C 397.59268 1034.7942 416.48658 1036.2894 417.84584 1045.9402 C 418.01281 1047.3709 417.9862 1046.9163 417.84584 1053.6881 C 417.94706 1056.3409 433.88528 1053.9599 441.90501 1054.0959 C 451.69178 1053.5522 452.91512 1070.9509 441.90501 1070.8149 C 433.88528 1070.679 418.20119 1069.6186 417.84584 1070.4071 C 414.23712 1072.0338 420.42846 1097.5926 420.70033 1111.1854 C 420.83625 1124.3703 396.50524 1126.9529 394.60224 1112.8165 C 394.73816 1098.4082 396.99167 1070.9218 395.36094 1069.4161 C 393.86576 1066.1539 380.60171 1069.5916 373.39756 1069.5916 C 367.28083 1070.9509 363.61078 1056.4066 373.39756 1054.0959 z "
       id="path834"
       sodipodi:nodetypes="ccccccccccccc"
       transform="translate(799.9215,53.64350)" />
    <path
       d="M 174.56165 1085.9735 C 173.98025 1084.2224 158.58318 1078.5601 159.06685 1070.841 C 158.07099 1062.4658 172.38525 1047.9012 184.28745 1049.747 C 200.25125 1049.2958 221.33804 1068.4691 222.77442 1079.3076 C 224.39135 1091.365 191.08925 1107.4012 177.38276 1112.8658 C 167.92692 1116.2865 155.56946 1114.6972 156.71938 1105.1268 C 158.15541 1098.8267 174.83869 1087.5964 174.56165 1085.9735 z M 181.52442 1063.9259 C 187.33504 1059.3246 198.1076 1066.8569 195.08357 1073.2645 C 190.27331 1078.7416 176.26159 1071.671 181.52442 1063.9259 z "
       style="font-size:12;fill:url(#radialGradient635);fill-opacity:0.575397;fill-rule:evenodd;stroke-width:2.54998;stroke-linejoin:round;"
       id="path836"
       sodipodi:nodetypes="cccccccccc"
       transform="translate(799.9215,53.64350)" />
    <path
       d="M 174.56165 1085.9735 C 173.98025 1084.2224 158.58318 1078.5601 159.06685 1070.841 C 158.07099 1062.4658 172.38525 1047.9012 184.28745 1049.747 C 200.25125 1049.2958 221.33804 1068.4691 222.77442 1079.3076 C 224.39135 1091.365 191.08925 1107.4012 177.38276 1112.8658 C 167.92692 1116.2865 155.56946 1114.6972 156.71938 1105.1268 C 158.15541 1098.8267 174.83869 1087.5964 174.56165 1085.9735 z M 181.52442 1063.9259 C 187.33504 1059.3246 198.1076 1066.8569 195.08357 1073.2645 C 190.27331 1078.7416 176.26159 1071.671 181.52442 1063.9259 z "
       style="font-size:12;fill:url(#radialGradient635);fill-opacity:0.575397;fill-rule:evenodd;stroke-width:2.54998;stroke-linejoin:round;"
       id="path839"
       sodipodi:nodetypes="cccccccccc"
       transform="translate(799.9215,53.64350)" />
    <path
       d="M 268.11125 1068.7029 C 264.44118 1063.0524 252.80573 1069.0084 256.25695 1075.4256 C 259.9854 1079.3614 272.19419 1073.8386 268.11125 1068.7029 z M 262.5394 1086.8974 C 267.90558 1084.702 282.33899 1082.2998 283.22289 1074.1758 C 282.99188 1063.6518 273.73662 1058.9855 263.12649 1058.7475 C 248.89573 1058.3011 232.60878 1068.6659 231.70128 1082.373 C 230.25987 1094.3027 246.42159 1101.0657 261.93895 1104.3794 C 274.4603 1107.3072 289.8376 1105.9217 290.44465 1099.1522 C 290.65619 1086.9521 264.7732 1089.6985 262.5394 1086.8974 z "
       style="font-size:12;fill:#ffffff;fill-opacity:0.670635;fill-rule:evenodd;stroke-width:2.23117;stroke-linejoin:round;"
       id="path840"
       sodipodi:nodetypes="cccccccccc"
       transform="translate(799.9215,53.64350)" />
    <path
       style="font-size:12;fill:#ffffff;fill-opacity:0.67;fill-rule:evenodd;stroke-width:2.23923;"
       d="M 300.89948 1101.8968 C 297.45243 1099.8673 294.08881 1097.8051 298.26091 1085.7524 C 301.73701 1076.9447 309.72844 1065.0123 325.02736 1058.986 C 330.70602 1056.9 338.23603 1057.8256 343.91469 1059.564 C 363.38438 1067.2128 375.43123 1080.7676 379.95096 1094.6746 C 382.15289 1103.5982 374.27669 1107.8869 365.00541 1103.486 C 358.28184 1099.318 342.63698 1084.4813 330.47498 1070.3506 C 326.4188 1079.8537 318.65992 1094.7978 312.51771 1099.4334 C 309.73632 1101.5195 304.28886 1103.7802 300.89948 1101.8968 z "
       id="path841"
       sodipodi:nodetypes="ccccccccc"
       transform="translate(799.9215,53.64350)" />
    <path
       style="font-size:12;fill:#ffffff;fill-opacity:0.670635;fill-rule:evenodd;stroke-width:2.23923;"
       d="M 375.69859 1055.731 C 382.13303 1055.8479 396.14619 1057.6079 397.3161 1055.6191 C 398.53287 1053.8763 397.78406 1050.5885 397.66706 1048.5997 C 397.91131 1035.8786 416.48706 1038.5539 416.26845 1048.2487 C 416.05776 1056.403 416.30354 1054.9051 416.26845 1054.9172 C 415.44951 1057.1399 434.23876 1055.614 441.14117 1055.731 C 449.56442 1055.263 450.61732 1067.4607 441.14117 1067.3437 C 434.23876 1067.2267 415.68863 1064.1901 415.80562 1066.5299 C 412.88087 1068.0508 418.49125 1092.7049 418.72524 1104.4038 C 419.7679 1116.2147 399.75238 1120.7517 398.1145 1106.7334 C 395.45448 1098.9608 398.95395 1069.154 397.53981 1066.2908 C 396.25295 1063.483 380.97338 1065.828 374.77292 1065.828 C 368.11987 1067.4607 364.96113 1055.8685 375.69859 1055.731 z "
       id="path842"
       sodipodi:nodetypes="ccccccccccccc"
       transform="translate(799.9215,53.64350)" />
    <path
       style="font-size:12;fill:#ffffff;fill-opacity:0.67;fill-rule:evenodd;stroke-width:1pt;"
       d="M 255.05706 1073.4903 C 255.00873 1068.4635 258.44051 1067.0618 261.43727 1066.095 C 255.10541 1065.7567 253.55868 1068.3185 255.05706 1073.4903 z "
       id="path847"
       sodipodi:nodetypes="ccc"
       transform="translate(799.9215,53.64350)" />
    <path
       d="M 268.11125 1068.7029 C 264.44118 1063.0524 252.80573 1069.0084 256.25695 1075.4256 C 259.9854 1079.3614 272.19419 1073.8386 268.11125 1068.7029 z M 262.5394 1086.8974 C 267.90558 1084.702 282.33899 1082.2998 283.22289 1074.1758 C 282.99188 1063.6518 273.73662 1058.9855 263.12649 1058.7475 C 248.89573 1058.3011 232.60878 1068.6659 231.70128 1082.373 C 230.25987 1094.3027 246.42159 1101.0657 261.93895 1104.3794 C 274.4603 1107.3072 289.8376 1105.9217 290.44465 1099.1522 C 290.65619 1086.9521 264.7732 1089.6985 262.5394 1086.8974 z "
       style="font-size:12;fill:url(#linearGradient669);fill-opacity:0.670635;fill-rule:evenodd;stroke-width:2.23117;stroke-linejoin:round;"
       id="path848"
       sodipodi:nodetypes="cccccccccc"
       transform="translate(799.9215,53.64350)" />
    <path
       style="font-size:12;fill:#ffffff;fill-opacity:0.67;fill-rule:evenodd;stroke-width:1pt;"
       d="M 280.99107 1068.9674 C 281.48078 1076.8906 273.82834 1081.3713 271.13813 1083.0077 C 280.56548 1080.9958 284.66491 1074.5197 280.99107 1068.9674 z "
       id="path849"
       sodipodi:nodetypes="ccc"
       transform="translate(799.9215,53.64350)" />
    <path
       style="font-size:12;fill:#ffffff;fill-opacity:0.670635;fill-rule:evenodd;stroke-width:1pt;"
       d="M 304.06866 1101.4762 C 316.10406 1102.6846 324.80435 1079.3872 329.4445 1071.1702 C 328.71947 1069.0918 315.81405 1099.4945 304.06866 1101.4762 z "
       id="path850"
       sodipodi:nodetypes="ccc"
       transform="translate(799.9215,53.64350)" />
    <path
       style="font-size:12;fill:#ffffff;fill-opacity:0.67;fill-rule:evenodd;stroke-width:1pt;"
       d="M 378.39355 1093.5111 C 378.88326 1101.4343 374.56593 1103.4498 369.41064 1104.3612 C 377.82295 1105.9745 382.06739 1099.0634 378.39355 1093.5111 z "
       id="path851"
       sodipodi:nodetypes="ccc"
       transform="translate(799.9215,53.64350)" />
    <path
       style="font-size:12;fill:url(#linearGradient727);fill-opacity:0.670635;fill-rule:evenodd;stroke-width:2.23923;"
       d="M 375.69859 1055.731 C 382.13303 1055.8479 396.14619 1057.6079 397.3161 1055.6191 C 398.53287 1053.8763 397.78406 1050.5885 397.66706 1048.5997 C 397.91131 1035.8786 416.48706 1038.5539 416.26845 1048.2487 C 416.05776 1056.403 416.30354 1054.9051 416.26845 1054.9172 C 415.44951 1057.1399 434.23876 1055.614 441.14117 1055.731 C 449.56442 1055.263 450.61732 1067.4607 441.14117 1067.3437 C 434.23876 1067.2267 415.68863 1064.1901 415.80562 1066.5299 C 412.88087 1068.0508 418.49125 1092.7049 418.72524 1104.4038 C 419.7679 1116.2147 399.75238 1120.7517 398.1145 1106.7334 C 395.45448 1098.9608 398.95395 1069.154 397.53981 1066.2908 C 396.25295 1063.483 380.97338 1065.828 374.77292 1065.828 C 368.11987 1067.4607 364.96113 1055.8685 375.69859 1055.731 z "
       id="path860"
       sodipodi:nodetypes="ccccccccccccc"
       transform="translate(799.9215,53.64350)" />
    <g
       id="g946">
      <path
         style="font-size:12;fill:#8a75a1;fill-rule:evenodd;stroke-width:0.9;"
         d="M 478.1501 1056.7034 C 460.25499 1056.7034 442.05634 1072.353 442.05635 1088.1097 C 442.05635 1103.8664 453.72376 1112.1722 471.61884 1112.1721 C 489.51396 1112.1721 507.71259 1101.4289 507.71258 1085.6722 C 507.71258 1069.9155 496.04524 1056.7034 478.1501 1056.7034 z M 476.33759 1077.0472 C 482.00624 1077.0472 485.71259 1079.2122 485.71259 1084.2034 C 485.71259 1089.1947 479.94375 1092.1722 474.27509 1092.1722 C 468.60645 1092.1722 462.46261 1091.1947 462.46261 1086.2034 C 462.46261 1081.2121 470.66892 1077.0472 476.33759 1077.0472 z "
         id="path843"
         transform="translate(799.9215,53.64350)" />
      <path
         style="font-size:12;fill-rule:evenodd;stroke-width:0.9;"
         d="M 478.1501 1060.5797 C 460.25499 1060.5797 442.05634 1076.2292 442.05635 1091.986 C 442.05635 1107.7427 453.72376 1116.0484 471.61884 1116.0484 C 489.51396 1116.0484 507.71259 1105.3052 507.71258 1089.5485 C 507.71258 1073.7918 496.04524 1060.5797 478.1501 1060.5797 z M 476.33759 1080.9235 C 482.00624 1080.9234 485.71259 1083.0884 485.71259 1088.0797 C 485.71259 1093.071 479.94375 1096.0485 474.27509 1096.0485 C 468.60645 1096.0485 462.46261 1095.071 462.46261 1090.0797 C 462.46261 1085.0884 470.66892 1080.9235 476.33759 1080.9235 z "
         id="path647"
         transform="translate(799.9215,53.64350)" />
      <path
         style="font-size:12;fill-rule:evenodd;stroke-width:0.9;"
         d="M 478.1501 1060.5797 C 460.25499 1060.5797 442.05634 1076.2292 442.05635 1091.986 C 442.05635 1107.7427 453.72376 1116.0484 471.61884 1116.0484 C 489.51396 1116.0484 507.71259 1105.3052 507.71258 1089.5485 C 507.71258 1073.7918 496.04524 1060.5797 478.1501 1060.5797 z M 476.33759 1080.9235 C 482.00624 1080.9234 485.71259 1083.0884 485.71259 1088.0797 C 485.71259 1093.071 479.94375 1096.0485 474.27509 1096.0485 C 468.60645 1096.0485 462.46261 1095.071 462.46261 1090.0797 C 462.46261 1085.0884 470.66892 1080.9235 476.33759 1080.9235 z "
         id="path825"
         transform="translate(799.9215,53.64350)" />
      <path
         style="font-size:12;fill:#8a75a1;fill-rule:evenodd;stroke-width:0.9;"
         d="M 478.1501 1056.7034 C 460.25499 1056.7034 442.05634 1072.353 442.05635 1088.1097 C 442.05635 1103.8664 453.72376 1112.1722 471.61884 1112.1721 C 489.51396 1112.1721 507.71259 1101.4289 507.71258 1085.6722 C 507.71258 1069.9155 496.04524 1056.7034 478.1501 1056.7034 z M 476.33759 1077.0472 C 482.00624 1077.0472 485.71259 1079.2122 485.71259 1084.2034 C 485.71259 1089.1947 479.94375 1092.1722 474.27509 1092.1722 C 468.60645 1092.1722 462.46261 1091.1947 462.46261 1086.2034 C 462.46261 1081.2121 470.66892 1077.0472 476.33759 1077.0472 z "
         id="path665"
         transform="translate(799.9215,53.64350)" />
      <path
         style="font-size:12;fill:#ffffff;fill-opacity:0.67;fill-rule:evenodd;stroke-width:0.9;"
         d="M 477.51453 1059.1612 C 461.75621 1059.1612 445.73059 1072.9421 445.7306 1086.8174 C 445.7306 1097.4528 457.85618 1105.6925 475.92865 1104.304 C 491.68698 1102.4527 501.23292 1096.232 504.00991 1082.8196 C 504.00991 1068.9443 493.2729 1059.1612 477.51453 1059.1612 z M 475.55647 1073.836 C 480.54825 1073.8359 486.95103 1076.6681 487.87671 1082.9147 C 487.87671 1087.31 484.66783 1091.7635 475.04769 1093.152 C 468.08393 1094.0975 459.97773 1091.6069 462.11002 1084.3337 C 465.2472 1076.3186 472.6159 1074.0773 475.55647 1073.836 z "
         id="path844"
         sodipodi:nodetypes="cccccccccc"
         transform="translate(799.9215,53.64350)" />
      <path
         style="font-size:12;fill:#ffffff;fill-opacity:0.674603;fill-rule:evenodd;stroke-width:1pt;"
         d="M 476.07933 1073.1632 C 484.26452 1071.3216 490.14764 1073.9306 488.81755 1084.5202 C 487.5386 1074.698 480.73466 1074.0841 476.07933 1073.1632 z "
         id="path667"
         sodipodi:nodetypes="ccc"
         transform="translate(799.9215,53.64350)" />
      <path
         style="font-size:12;fill:#ffffff;fill-opacity:0.674603;fill-rule:evenodd;stroke-width:1pt;"
         d="M 476.07933 1073.1632 C 484.26452 1071.3216 490.14764 1073.9306 488.81755 1084.5202 C 487.5386 1074.698 480.73466 1074.0841 476.07933 1073.1632 z "
         id="path845"
         sodipodi:nodetypes="ccc"
         transform="translate(799.9215,53.64350)" />
      <path
         style="font-size:12;fill:url(#linearGradient653);fill-opacity:0.67;fill-rule:evenodd;stroke-width:0.9;"
         d="M 477.51453 1059.1612 C 461.75621 1059.1612 445.73059 1072.9421 445.7306 1086.8174 C 445.7306 1097.4528 457.85618 1105.6925 475.92865 1104.304 C 491.68698 1102.4527 501.23292 1096.232 504.00991 1082.8196 C 504.00991 1068.9443 493.2729 1059.1612 477.51453 1059.1612 z M 475.55647 1073.836 C 480.54825 1073.8359 486.95103 1076.6681 487.87671 1082.9147 C 487.87671 1087.31 484.66783 1091.7635 475.04769 1093.152 C 468.08393 1094.0975 459.97773 1091.6069 462.11002 1084.3337 C 465.2472 1076.3186 472.6159 1074.0773 475.55647 1073.836 z "
         id="path945"
         sodipodi:nodetypes="cccccccccc"
         transform="translate(799.9215,53.64350)" />
    </g>
    <g
       id="g955"
       transform="translate(66.87191,2.842171e-14)">
      <path
         style="font-size:12;fill:#8a75a1;fill-rule:evenodd;stroke-width:0.9;"
         d="M 478.1501 1056.7034 C 460.25499 1056.7034 442.05634 1072.353 442.05635 1088.1097 C 442.05635 1103.8664 453.72376 1112.1722 471.61884 1112.1721 C 489.51396 1112.1721 507.71259 1101.4289 507.71258 1085.6722 C 507.71258 1069.9155 496.04524 1056.7034 478.1501 1056.7034 z M 476.33759 1077.0472 C 482.00624 1077.0472 485.71259 1079.2122 485.71259 1084.2034 C 485.71259 1089.1947 479.94375 1092.1722 474.27509 1092.1722 C 468.60645 1092.1722 462.46261 1091.1947 462.46261 1086.2034 C 462.46261 1081.2121 470.66892 1077.0472 476.33759 1077.0472 z "
         id="path956"
         transform="translate(799.9215,53.64350)" />
      <path
         style="font-size:12;fill-rule:evenodd;stroke-width:0.9;"
         d="M 478.1501 1060.5797 C 460.25499 1060.5797 442.05634 1076.2292 442.05635 1091.986 C 442.05635 1107.7427 453.72376 1116.0484 471.61884 1116.0484 C 489.51396 1116.0484 507.71259 1105.3052 507.71258 1089.5485 C 507.71258 1073.7918 496.04524 1060.5797 478.1501 1060.5797 z M 476.33759 1080.9235 C 482.00624 1080.9234 485.71259 1083.0884 485.71259 1088.0797 C 485.71259 1093.071 479.94375 1096.0485 474.27509 1096.0485 C 468.60645 1096.0485 462.46261 1095.071 462.46261 1090.0797 C 462.46261 1085.0884 470.66892 1080.9235 476.33759 1080.9235 z "
         id="path957"
         transform="translate(799.9215,53.64350)" />
      <path
         style="font-size:12;fill-rule:evenodd;stroke-width:0.9;"
         d="M 478.1501 1060.5797 C 460.25499 1060.5797 442.05634 1076.2292 442.05635 1091.986 C 442.05635 1107.7427 453.72376 1116.0484 471.61884 1116.0484 C 489.51396 1116.0484 507.71259 1105.3052 507.71258 1089.5485 C 507.71258 1073.7918 496.04524 1060.5797 478.1501 1060.5797 z M 476.33759 1080.9235 C 482.00624 1080.9234 485.71259 1083.0884 485.71259 1088.0797 C 485.71259 1093.071 479.94375 1096.0485 474.27509 1096.0485 C 468.60645 1096.0485 462.46261 1095.071 462.46261 1090.0797 C 462.46261 1085.0884 470.66892 1080.9235 476.33759 1080.9235 z "
         id="path958"
         transform="translate(799.9215,53.64350)" />
      <path
         style="font-size:12;fill:#8a75a1;fill-rule:evenodd;stroke-width:0.9;"
         d="M 478.1501 1056.7034 C 460.25499 1056.7034 442.05634 1072.353 442.05635 1088.1097 C 442.05635 1103.8664 453.72376 1112.1722 471.61884 1112.1721 C 489.51396 1112.1721 507.71259 1101.4289 507.71258 1085.6722 C 507.71258 1069.9155 496.04524 1056.7034 478.1501 1056.7034 z M 476.33759 1077.0472 C 482.00624 1077.0472 485.71259 1079.2122 485.71259 1084.2034 C 485.71259 1089.1947 479.94375 1092.1722 474.27509 1092.1722 C 468.60645 1092.1722 462.46261 1091.1947 462.46261 1086.2034 C 462.46261 1081.2121 470.66892 1077.0472 476.33759 1077.0472 z "
         id="path959"
         transform="translate(799.9215,53.64350)" />
      <path
         style="font-size:12;fill:#ffffff;fill-opacity:0.67;fill-rule:evenodd;stroke-width:0.9;"
         d="M 477.51453 1059.1612 C 461.75621 1059.1612 445.73059 1072.9421 445.7306 1086.8174 C 445.7306 1097.4528 457.85618 1105.6925 475.92865 1104.304 C 491.68698 1102.4527 501.23292 1096.232 504.00991 1082.8196 C 504.00991 1068.9443 493.2729 1059.1612 477.51453 1059.1612 z M 475.55647 1073.836 C 480.54825 1073.8359 486.95103 1076.6681 487.87671 1082.9147 C 487.87671 1087.31 484.66783 1091.7635 475.04769 1093.152 C 468.08393 1094.0975 459.97773 1091.6069 462.11002 1084.3337 C 465.2472 1076.3186 472.6159 1074.0773 475.55647 1073.836 z "
         id="path960"
         sodipodi:nodetypes="cccccccccc"
         transform="translate(799.9215,53.64350)" />
      <path
         style="font-size:12;fill:#ffffff;fill-opacity:0.674603;fill-rule:evenodd;stroke-width:1pt;"
         d="M 476.07933 1073.1632 C 484.26452 1071.3216 490.14764 1073.9306 488.81755 1084.5202 C 487.5386 1074.698 480.73466 1074.0841 476.07933 1073.1632 z "
         id="path961"
         sodipodi:nodetypes="ccc"
         transform="translate(799.9215,53.64350)" />
      <path
         style="font-size:12;fill:#ffffff;fill-opacity:0.674603;fill-rule:evenodd;stroke-width:1pt;"
         d="M 476.07933 1073.1632 C 484.26452 1071.3216 490.14764 1073.9306 488.81755 1084.5202 C 487.5386 1074.698 480.73466 1074.0841 476.07933 1073.1632 z "
         id="path962"
         sodipodi:nodetypes="ccc"
         transform="translate(799.9215,53.64350)" />
      <path
         style="font-size:12;fill:url(#linearGradient653);fill-opacity:0.67;fill-rule:evenodd;stroke-width:0.9;"
         d="M 477.51453 1059.1612 C 461.75621 1059.1612 445.73059 1072.9421 445.7306 1086.8174 C 445.7306 1097.4528 457.85618 1105.6925 475.92865 1104.304 C 491.68698 1102.4527 501.23292 1096.232 504.00991 1082.8196 C 504.00991 1068.9443 493.2729 1059.1612 477.51453 1059.1612 z M 475.55647 1073.836 C 480.54825 1073.8359 486.95103 1076.6681 487.87671 1082.9147 C 487.87671 1087.31 484.66783 1091.7635 475.04769 1093.152 C 468.08393 1094.0975 459.97773 1091.6069 462.11002 1084.3337 C 465.2472 1076.3186 472.6159 1074.0773 475.55647 1073.836 z "
         id="path963"
         sodipodi:nodetypes="cccccccccc"
         transform="translate(799.9215,53.64350)" />
    </g>
  </g>
</svg>
