<?xml version="1.0" encoding="UTF-8" standalone="no"?>
<!DOCTYPE svg PUBLIC "-//W3C//DTD SVG 20010904//EN"
"http://www.w3.org/TR/2001/REC-SVG-20010904/DTD/svg10.dtd">
<!-- Created with Inkscape (http://www.inkscape.org/) -->
<svg
   id="svg578"
   sodipodi:version="0.32"
   inkscape:version="0.37"
   width="210mm"
   height="297mm"
   sodipodi:docbase="/home/iain"
   sodipodi:docname="GentooWallpaper.svg"
   xmlns="http://www.w3.org/2000/svg"
   xmlns:inkscape="http://www.inkscape.org/namespaces/inkscape"
   xmlns:sodipodi="http://sodipodi.sourceforge.net/DTD/sodipodi-0.dtd"
   xmlns:xlink="http://www.w3.org/1999/xlink">
  <defs
     id="defs580">
    <linearGradient
       id="linearGradient661">
      <stop
         style="stop-color:#ffffff;stop-opacity:0;"
         offset="0.00000000"
         id="stop662" />
      <stop
         style="stop-color:#ffffff;stop-opacity:1;"
         offset="1.00000000"
         id="stop663" />
    </linearGradient>
    <linearGradient
       id="linearGradient655">
      <stop
         style="stop-color:#ffffff;stop-opacity:0;"
         offset="0.00000000"
         id="stop656" />
      <stop
         style="stop-color:#ffffff;stop-opacity:0;"
         offset="1.00000000"
         id="stop657" />
    </linearGradient>
    <linearGradient
       id="linearGradient632">
      <stop
         style="stop-color:#ffffff;stop-opacity:1;"
         offset="0.00000000"
         id="stop633" />
      <stop
         style="stop-color:#ffffff;stop-opacity:0;"
         offset="1.00000000"
         id="stop634" />
    </linearGradient>
    <radialGradient
       xlink:href="#linearGradient632"
       id="radialGradient635"
       cx="1.17197454"
       cy="0.41333333"
       r="1.94560134"
       fx="1.17197454"
       fy="0.41333333" />
    <linearGradient
       xlink:href="#linearGradient661"
       id="linearGradient653"
       x1="0.10691824"
       y1="0.06000000"
       x2="0.67924529"
       y2="0.56666666" />
    <radialGradient
       xlink:href="#linearGradient655"
       id="radialGradient654"
       cx="0.50000000"
       cy="0.50000000"
       r="0.50000000"
       fx="0.50000000"
       fy="0.50000000" />
    <radialGradient
       xlink:href="#linearGradient655"
       id="radialGradient658" />
    <linearGradient
       xlink:href="#linearGradient661"
       id="linearGradient650"
       x1="0.76165801"
       y1="0.03333334"
       x2="0.36269429"
       y2="0.76666665" />
    <linearGradient
       xlink:href="#linearGradient661"
       id="linearGradient654"
       x1="0.74611402"
       y1="0.06666667"
       x2="0.12435233"
       y2="0.80666667" />
    <linearGradient
       xlink:href="#linearGradient661"
       id="linearGradient669"
       x1="0.03703704"
       y1="0.04000000"
       x2="1.06349206"
       y2="0.95999998" />
    <linearGradient
       xlink:href="#linearGradient661"
       id="linearGradient727"
       x1="0.08805031"
       y1="0.08000000"
       x2="0.69182390"
       y2="0.60666668" />
  </defs>
  <sodipodi:namedview
     id="base"
     pagecolor="#ffffff"
     bordercolor="#666666"
     borderopacity="1.0"
     inkscape:pageopacity="1"
     inkscape:pageshadow="2"
     inkscape:zoom="0.79226526"
     inkscape:cx="297.637782"
     inkscape:cy="118.016029"
     inkscape:window-width="1145"
     inkscape:window-height="803"
     inkscape:window-x="0"
     inkscape:window-y="0" />
  <rect
     style="font-size:12;fill:#b50000;fill-rule:evenodd;stroke-width:1pt;fill-opacity:1;stroke:none;stroke-opacity:1;"
     id="rect1594"
     width="800.00000000"
     height="599.99993896"
     x="-35.47074058"
     y="-59.65807346" />
  <path
     style="font-size:12;fill-opacity:0.920635;fill-rule:evenodd;stroke-width:9.5;stroke:none;stroke-opacity:1;stroke-dasharray:none;fill:#000000;"
     d="M 455.50418 326.10829 C 383.17718 387.08033 303.53018 362.01634 264.63818 317.37729 C 205.95618 244.34937 33.947814 241.529 -35.134826 539.75888 L 764.52918 528.84233 L 764.52918 -59.15507 C 638.54671 190.08745 377.71807 -30.99464 281.97704 132.37807 C 354.56504 77.88212 433.33018 96.29037 471.72818 149.72733 C 510.12618 203.16437 504.62618 285.75726 455.50418 326.10829 z "
     id="path1137"
     sodipodi:nodetypes="cccccccc" />
  <path
     style="font-size:12;fill-opacity:1;fill-rule:evenodd;stroke-width:9.5;stroke:none;stroke-opacity:1;stroke-dasharray:none;fill:#7b0000;"
     d="M 455.50418 337.60744 C 383.17718 398.57944 303.53018 373.51544 264.63818 328.87644 C 205.95618 255.84844 54.79108 244.22944 -35.47072 540.34144 L 764.52918 540.34144 L 764.52918 -59.65756 C 651.96018 204.41044 374.89418 -18.08356 278.44718 137.52344 C 351.03518 83.02744 433.33018 107.78944 471.72818 161.22644 C 510.12618 214.66344 504.62618 297.25644 455.50418 337.60744 z "
     id="path1694"
     sodipodi:nodetypes="cccccccc" />
  <g
     id="g1091"
     transform="matrix(2.357430,0.000000,0.000000,2.357430,-507.4187,-958.3662)">
    <path
       d="M 367.86687 491.33023 C 372.10937 487.08108 378.59771 491.27023 376.48144 495.31689 C 373.99839 499.74017 363.69046 495.51321 367.86687 491.33023 z M 353.15206 510.40234 C 360.93814 511.72564 338.4337 509.35727 337.97047 494.06881 C 336.79617 483.51507 350.87559 467.84401 364.91049 467.54094 C 383.73477 466.97235 408.11965 491.07993 409.81341 504.73776 C 411.72008 519.93146 376.13962 546.31579 354.28949 549.38428 C 340.4674 550.29434 335.3955 537.61281 337.04139 529.5807 C 338.73474 521.64178 353.47874 512.44742 353.15206 510.40234 z "
       style="font-size:12;fill-rule:evenodd;stroke-width:2.54998;stroke-linejoin:round;"
       id="path1087"
       sodipodi:nodetypes="cccccccccc" />
    <path
       d="M 353.15206 507.27661 C 352.46648 505.23093 339.13967 501.72624 337.97047 492.13396 C 336.79617 482.34968 350.87559 467.82119 364.91049 467.54022 C 383.73477 467.01308 408.11965 489.36299 409.81341 502.02503 C 411.72008 516.11097 364.81326 546.38389 351.54999 544.72539 C 338.66027 543.26407 335.3955 532.50318 337.04139 525.05668 C 338.73474 517.69659 353.47874 509.17259 353.15206 507.27661 z M 367.1609 486.97704 C 371.4034 483.03769 378.59771 489.53941 376.48144 493.29104 C 373.99839 497.39182 362.98449 490.85504 367.1609 486.97704 z "
       style="font-size:12;fill:#ff2623;fill-rule:evenodd;stroke-width:2.54998;stroke-linejoin:round;"
       id="path1088" />
    <path
       d="M 356.74133 506.50489 C 356.15993 504.75382 340.76286 499.09152 341.24653 491.37241 C 340.25067 482.99722 354.56493 468.43263 366.46713 470.27838 C 382.43093 469.82715 403.51772 489.0005 404.9541 499.83901 C 406.57103 511.89635 373.26893 527.93264 359.56244 533.39725 C 350.1066 536.81786 337.74914 535.22856 338.89906 525.65821 C 340.33509 519.35809 357.01837 508.12782 356.74133 506.50489 z M 363.7041 484.45733 C 369.51472 479.85597 380.28728 487.38827 377.26325 493.79587 C 372.45299 499.273 358.44127 492.20242 363.7041 484.45733 z "
       style="font-size:12;fill:url(#radialGradient635);fill-opacity:0.575397;fill-rule:evenodd;stroke-width:2.54998;stroke-linejoin:round;"
       id="path1089"
       sodipodi:nodetypes="cccccccccc" />
    <path
       d="M 356.74133 506.50489 C 356.15993 504.75382 340.76286 499.09152 341.24653 491.37241 C 340.25067 482.99722 354.56493 468.43263 366.46713 470.27838 C 382.43093 469.82715 403.51772 489.0005 404.9541 499.83901 C 406.57103 511.89635 373.26893 527.93264 359.56244 533.39725 C 350.1066 536.81786 337.74914 535.22856 338.89906 525.65821 C 340.33509 519.35809 357.01837 508.12782 356.74133 506.50489 z M 363.7041 484.45733 C 369.51472 479.85597 380.28728 487.38827 377.26325 493.79587 C 372.45299 499.273 358.44127 492.20242 363.7041 484.45733 z "
       style="font-size:12;fill:url(#radialGradient635);fill-opacity:0.575397;fill-rule:evenodd;stroke-width:2.54998;stroke-linejoin:round;"
       id="path1090"
       sodipodi:nodetypes="cccccccccc" />
  </g>
  <path
     style="font-size:12;fill-rule:evenodd;stroke-width:0.9;"
     d="M 478.1501 407.17274 C 460.25499 407.17274 442.05634 422.82228 442.05635 438.57899 C 442.05635 454.33572 453.72376 462.6415 471.61884 462.64149 C 489.51396 462.64149 507.71259 451.89822 507.71258 436.14149 C 507.71258 420.38479 496.04524 407.17274 478.1501 407.17274 z M 476.33759 427.51649 C 482.00624 427.51648 485.71259 429.68148 485.71259 434.67274 C 485.71259 439.66402 479.94375 442.64149 474.27509 442.64149 C 468.60645 442.6415 462.46261 441.66403 462.46261 436.67274 C 462.46261 431.68147 470.66892 427.51649 476.33759 427.51649 z "
     id="path688" />
  <path
     style="font-size:12;fill-rule:evenodd;stroke-width:2.23923;"
     d="M 373.39756 403.86907 C 380.87357 404.00649 394.46632 406.61775 395.82561 404.28138 C 397.7286 404.83111 397.08058 397.66046 396.94465 395.32407 C 398.30394 383.6422 415.41968 385.86518 416.77894 395.62303 C 415.96336 405.6557 417.84584 401.25782 417.84584 403.45676 C 416.89434 406.06798 433.88528 403.73164 441.90501 403.86907 C 451.69178 403.31933 452.91512 420.91092 441.90501 420.77346 C 433.88528 420.63603 418.90301 418.80553 417.84584 420.36115 C 414.44766 422.14778 420.42846 447.84796 420.70033 461.59136 C 420.83625 474.92243 396.50524 477.5337 394.60224 463.24055 C 394.73816 448.67255 396.5753 423.0155 395.01003 419.53654 C 393.51485 416.23811 380.60171 419.53654 373.39756 419.53654 C 367.28083 420.91089 363.61078 406.20546 373.39756 403.86907 z "
     id="path689"
     sodipodi:nodetypes="ccccccccccccc" />
  <path
     style="font-size:12;fill-rule:evenodd;stroke-width:2.23923;"
     d="M 301.0284 458.23044 C 295.42376 456.83955 291.24161 449.93888 296.13502 435.80241 C 300.21209 425.47192 306.32805 414.73366 324.27199 407.66544 C 330.93242 405.21876 337.59288 405.21876 344.25332 407.25765 C 367.08911 416.22884 376.87591 428.87011 382.17706 445.18139 C 386.00283 452.22915 378.77888 461.22086 367.90469 458.23044 C 357.30444 454.97046 340.5833 437.02577 331.20429 426.42343 C 326.44685 437.56946 321.68936 450.75443 314.48522 456.19153 C 311.22296 458.63821 306.22526 459.02464 301.0284 458.23044 z "
     id="path690"
     sodipodi:nodetypes="ccccccccc" />
  <path
     d="M 267.06598 436.08552 C 273.21637 435.57089 285.08665 432.25404 286.04854 422.5545 C 285.79715 409.98939 274.21438 403.31284 262.66821 403.0287 C 247.18199 402.49569 229.96185 417.08112 228.97429 433.44668 C 227.40572 447.6901 259.09588 464.05379 274.4712 461.93151 C 286.00758 461.697 294.25412 454.65545 292.90008 447.12567 C 293.13028 432.55941 263.95654 436.66698 267.06598 436.08552 z M 264.3742 420.40595 C 260.88401 416.42256 256.08784 419.83839 257.82886 423.63197 C 259.87159 427.77859 267.81 424.32732 264.3742 420.40595 z "
     style="font-size:12;fill-rule:evenodd;stroke-width:2.23117;stroke-linejoin:round;"
     id="path691"
     sodipodi:nodetypes="cccccccccc" />
  <path
     d="M 185.68719 417.39188 C 189.92969 413.14273 196.41803 417.33188 194.30176 421.37854 C 191.81871 425.80182 181.51078 421.57486 185.68719 417.39188 z M 170.97238 436.46399 C 178.75846 437.78729 156.25402 435.41892 155.79079 420.13046 C 154.61649 409.57672 168.69591 393.90566 182.73081 393.60259 C 201.55509 393.034 225.93997 417.14158 227.63373 430.79941 C 229.5404 445.99311 193.95994 472.37744 172.10981 475.44593 C 158.28772 476.35599 153.21582 463.67446 154.86171 455.64235 C 156.55506 447.70343 171.29906 438.50907 170.97238 436.46399 z "
     style="font-size:12;fill-rule:evenodd;stroke-width:2.54998;stroke-linejoin:round;"
     id="path692"
     sodipodi:nodetypes="cccccccccc" />
  <path
     style="font-size:12;fill:url(#linearGradient650);fill-opacity:0.67;fill-rule:evenodd;stroke-width:0.9;"
     d="M 477.51453 405.75425 C 461.75621 405.75425 445.73059 419.53514 445.7306 433.4104 C 445.7306 444.04585 457.85618 452.28554 475.92865 450.89703 C 491.68698 449.0457 501.23292 442.82507 504.00991 429.41262 C 504.00991 415.53738 493.2729 405.75425 477.51453 405.75425 z M 475.91845 420.42899 C 480.91023 420.42898 486.95103 423.26114 487.87671 429.50776 C 487.87671 433.90305 484.18519 438.83916 474.56505 440.22765 C 467.72195 440.6905 460.46038 438.44125 461.38605 430.8061 C 461.38605 426.41082 470.92665 420.42899 475.91845 420.42899 z "
     id="path693"
     sodipodi:nodetypes="cccccccccc" />
  <path
     d="M 170.97238 433.33826 C 170.2868 431.29258 156.95999 427.78789 155.79079 418.19561 C 154.61649 408.41133 168.69591 393.88284 182.73081 393.60187 C 201.55509 393.07473 225.93997 415.42464 227.63373 428.08668 C 229.5404 442.17262 182.63358 472.44554 169.37031 470.78704 C 156.48059 469.32572 153.21582 458.56483 154.86171 451.11833 C 156.55506 443.75824 171.29906 435.23424 170.97238 433.33826 z M 184.98122 413.03869 C 189.22372 409.09934 196.41803 415.60106 194.30176 419.35269 C 191.81871 423.45347 180.80481 416.91669 184.98122 413.03869 z "
     style="font-size:12;fill:#ff2623;fill-rule:evenodd;stroke-width:2.54998;stroke-linejoin:round;"
     id="path694" />
  <path
     d="M 267.2509 433.30314 C 273.1188 431.40861 285.35892 429.79402 286.32547 420.91053 C 286.07286 409.40257 274.43395 403.28774 262.83181 403.02751 C 247.27052 402.53934 229.96691 415.89765 228.97456 430.88632 C 227.39839 443.93139 259.24216 458.91834 274.69201 456.97462 C 285.34742 455.62128 294.57083 452.58785 293.21022 445.69157 C 293.44154 432.35082 264.12638 433.83568 267.2509 433.30314 z M 264.23377 416.95026 C 260.72666 413.30201 255.59495 417.28438 257.34441 420.75879 C 259.39704 424.55654 267.68623 420.54171 264.23377 416.95026 z "
     style="font-size:12;fill:#ff2623;fill-rule:evenodd;stroke-width:2.23117;stroke-linejoin:round;"
     id="path695"
     sodipodi:nodetypes="cccccccccc" />
  <path
     style="font-size:12;fill:#ff2623;fill-rule:evenodd;stroke-width:2.23923;"
     d="M 301.0284 454.10837 C 296.13502 453.42874 291.24161 445.81681 296.13502 431.68034 C 300.21209 421.34986 306.32805 410.61159 324.27199 403.54337 C 330.93242 401.09669 337.59288 401.09669 344.25332 403.13558 C 367.08911 412.10677 376.87591 424.74804 382.17706 441.05932 C 384.75968 451.52575 378.77888 457.09879 367.90469 454.10837 C 357.30444 450.84839 340.5833 432.9037 331.20429 422.30136 C 326.44685 433.44739 321.68936 446.63236 314.48522 452.06946 C 311.22296 454.51614 305.514 456.14729 301.0284 454.10837 z "
     id="path696"
     sodipodi:nodetypes="ccccccccc" />
  <path
     style="font-size:12;fill:#ff2623;fill-rule:evenodd;stroke-width:2.23923;"
     d="M 373.39756 400.6889 C 374.17122 400.54409 394.46632 403.40745 395.82561 401.09669 C 396.74606 400.27186 396.36932 395.25181 396.23339 392.94105 C 397.59268 381.38723 416.48658 382.88239 417.84584 392.53326 C 418.01281 393.96396 417.9862 393.50937 417.84584 400.28111 C 417.94706 402.93389 433.88528 400.55298 441.90501 400.6889 C 451.69178 400.14519 452.91512 417.54392 441.90501 417.40797 C 433.88528 417.27205 418.20119 416.21161 417.84584 417.00018 C 414.23712 418.62687 420.42846 444.18568 420.70033 457.77842 C 420.83625 470.96337 396.50524 473.54599 394.60224 459.40955 C 394.73816 445.00123 396.99167 417.51484 395.36094 416.00918 C 393.86576 412.7469 380.60171 416.18463 373.39756 416.18463 C 367.28083 417.54389 363.61078 402.99968 373.39756 400.6889 z "
     id="path697"
     sodipodi:nodetypes="ccccccccccccc" />
  <path
     style="font-size:12;fill:#ff2623;fill-rule:evenodd;stroke-width:0.9;"
     d="M 478.1501 403.29645 C 460.25499 403.29645 442.05634 418.94599 442.05635 434.7027 C 442.05635 450.45943 453.72376 458.76521 471.61884 458.7652 C 489.51396 458.7652 507.71259 448.02193 507.71258 432.2652 C 507.71258 416.5085 496.04524 403.29645 478.1501 403.29645 z M 476.33759 423.6402 C 482.00624 423.64019 485.71259 425.80519 485.71259 430.79645 C 485.71259 435.78773 479.94375 438.7652 474.27509 438.7652 C 468.60645 438.76521 462.46261 437.78774 462.46261 432.79645 C 462.46261 427.80518 470.66892 423.6402 476.33759 423.6402 z "
     id="path698" />
  <path
     d="M 174.56165 432.56654 C 173.98025 430.81547 158.58318 425.15317 159.06685 417.43406 C 158.07099 409.05887 172.38525 394.49428 184.28745 396.34003 C 200.25125 395.8888 221.33804 415.06215 222.77442 425.90066 C 224.39135 437.958 191.08925 453.99429 177.38276 459.4589 C 167.92692 462.87951 155.56946 461.29021 156.71938 451.71986 C 158.15541 445.41974 174.83869 434.18947 174.56165 432.56654 z M 181.52442 410.51898 C 187.33504 405.91762 198.1076 413.44992 195.08357 419.85752 C 190.27331 425.33465 176.26159 418.26407 181.52442 410.51898 z "
     style="font-size:12;fill:url(#radialGradient635);fill-opacity:0.575397;fill-rule:evenodd;stroke-width:2.54998;stroke-linejoin:round;"
     id="path699"
     sodipodi:nodetypes="cccccccccc" />
  <path
     style="font-size:12;fill:#ff2623;fill-rule:evenodd;stroke-width:2.23923;"
     d="M 301.0284 454.10837 C 296.13502 453.42874 291.24161 445.81681 296.13502 431.68034 C 300.21209 421.34986 306.32805 410.61159 324.27199 403.54337 C 330.93242 401.09669 337.59288 401.09669 344.25332 403.13558 C 367.08911 412.10677 376.87591 424.74804 382.17706 441.05932 C 384.75968 451.52575 378.77888 457.09879 367.90469 454.10837 C 357.30444 450.84839 340.5833 432.9037 331.20429 422.30136 C 326.44685 433.44739 321.68936 446.63236 314.48522 452.06946 C 311.22296 454.51614 305.514 456.14729 301.0284 454.10837 z "
     id="path700"
     sodipodi:nodetypes="ccccccccc" />
  <path
     style="font-size:12;fill:#ff2623;fill-rule:evenodd;stroke-width:0.9;"
     d="M 478.1501 403.29645 C 460.25499 403.29645 442.05634 418.94599 442.05635 434.7027 C 442.05635 450.45943 453.72376 458.76521 471.61884 458.7652 C 489.51396 458.7652 507.71259 448.02193 507.71258 432.2652 C 507.71258 416.5085 496.04524 403.29645 478.1501 403.29645 z M 476.33759 423.6402 C 482.00624 423.64019 485.71259 425.80519 485.71259 430.79645 C 485.71259 435.78773 479.94375 438.7652 474.27509 438.7652 C 468.60645 438.76521 462.46261 437.78774 462.46261 432.79645 C 462.46261 427.80518 470.66892 423.6402 476.33759 423.6402 z "
     id="path702" />
  <path
     d="M 174.56165 432.56654 C 173.98025 430.81547 158.58318 425.15317 159.06685 417.43406 C 158.07099 409.05887 172.38525 394.49428 184.28745 396.34003 C 200.25125 395.8888 221.33804 415.06215 222.77442 425.90066 C 224.39135 437.958 191.08925 453.99429 177.38276 459.4589 C 167.92692 462.87951 155.56946 461.29021 156.71938 451.71986 C 158.15541 445.41974 174.83869 434.18947 174.56165 432.56654 z M 181.52442 410.51898 C 187.33504 405.91762 198.1076 413.44992 195.08357 419.85752 C 190.27331 425.33465 176.26159 418.26407 181.52442 410.51898 z "
     style="font-size:12;fill:url(#radialGradient635);fill-opacity:0.575397;fill-rule:evenodd;stroke-width:2.54998;stroke-linejoin:round;"
     id="path703"
     sodipodi:nodetypes="cccccccccc" />
  <path
     d="M 268.11125 415.29589 C 264.44118 409.6454 252.80573 415.60144 256.25695 422.01861 C 259.9854 425.95448 272.19419 420.4316 268.11125 415.29589 z M 262.5394 433.4904 C 267.90558 431.29502 282.33899 428.89281 283.22289 420.76888 C 282.99188 410.24488 273.73662 405.57855 263.12649 405.34057 C 248.89573 404.89414 232.60878 415.25894 231.70128 428.96605 C 230.25987 440.89574 246.42159 447.65877 261.93895 450.97241 C 274.4603 453.90029 289.8376 452.51472 290.44465 445.74526 C 290.65619 433.54517 264.7732 436.29157 262.5394 433.4904 z "
     style="font-size:12;fill:#ffffff;fill-opacity:0.670635;fill-rule:evenodd;stroke-width:2.23117;stroke-linejoin:round;"
     id="path704"
     sodipodi:nodetypes="cccccccccc" />
  <path
     style="font-size:12;fill:#ffffff;fill-opacity:0.67;fill-rule:evenodd;stroke-width:2.23923;"
     d="M 300.89948 448.48986 C 297.45243 446.46037 294.08881 444.39816 298.26091 432.34547 C 301.73701 423.53776 309.72844 411.60536 325.02736 405.57902 C 330.70602 403.493 338.23603 404.41866 343.91469 406.157 C 363.38438 413.8058 375.43123 427.36068 379.95096 441.2676 C 382.15289 450.19123 374.27669 454.47995 365.00541 450.07901 C 358.28184 445.91107 342.63698 431.07434 330.47498 416.94366 C 326.4188 426.44671 318.65992 441.39082 312.51771 446.02647 C 309.73632 448.1125 304.28886 450.37324 300.89948 448.48986 z "
     id="path705"
     sodipodi:nodetypes="ccccccccc" />
  <path
     style="font-size:12;fill:#ffffff;fill-opacity:0.670635;fill-rule:evenodd;stroke-width:2.23923;"
     d="M 375.69859 402.324 C 382.13303 402.44097 396.14619 404.20096 397.3161 402.21214 C 398.53287 400.46938 397.78406 397.18158 397.66706 395.19275 C 397.91131 382.47162 416.48706 385.14698 416.26845 394.84178 C 416.05776 402.99602 416.30354 401.49816 416.26845 401.51019 C 415.44951 403.73297 434.23876 402.20701 441.14117 402.324 C 449.56442 401.85603 450.61732 414.05374 441.14117 413.93674 C 434.23876 413.81975 415.68863 410.78312 415.80562 413.12294 C 412.88087 414.6438 418.49125 439.29791 418.72524 450.99689 C 419.7679 462.80773 399.75238 467.34471 398.1145 453.32644 C 395.45448 445.55383 398.95395 415.74708 397.53981 412.88384 C 396.25295 410.07605 380.97338 412.42101 374.77292 412.42101 C 368.11987 414.05371 364.96113 402.46151 375.69859 402.324 z "
     id="path706"
     sodipodi:nodetypes="ccccccccccccc" />
  <path
     style="font-size:12;fill:#ff2623;fill-rule:evenodd;stroke-width:0.9;"
     d="M 478.1501 403.29645 C 460.25499 403.29645 442.05634 418.94599 442.05635 434.7027 C 442.05635 450.45943 453.72376 458.76521 471.61884 458.7652 C 489.51396 458.7652 507.71259 448.02193 507.71258 432.2652 C 507.71258 416.5085 496.04524 403.29645 478.1501 403.29645 z M 476.33759 423.6402 C 482.00624 423.64019 485.71259 425.80519 485.71259 430.79645 C 485.71259 435.78773 479.94375 438.7652 474.27509 438.7652 C 468.60645 438.76521 462.46261 437.78774 462.46261 432.79645 C 462.46261 427.80518 470.66892 423.6402 476.33759 423.6402 z "
     id="path708" />
  <path
     style="font-size:12;fill:#ffffff;fill-opacity:0.67;fill-rule:evenodd;stroke-width:0.9;"
     d="M 477.51453 405.75425 C 461.75621 405.75425 445.73059 419.53514 445.7306 433.4104 C 445.7306 444.04585 457.85618 452.28554 475.92865 450.89703 C 491.68698 449.0457 501.23292 442.82507 504.00991 429.41262 C 504.00991 415.53738 493.2729 405.75425 477.51453 405.75425 z M 475.55647 420.42899 C 480.54825 420.42898 486.95103 423.26114 487.87671 429.50776 C 487.87671 433.90305 484.66783 438.35652 475.04769 439.74501 C 468.08393 440.6905 459.97773 438.19993 462.11002 430.92676 C 465.2472 422.91165 472.6159 420.67031 475.55647 420.42899 z "
     id="path709"
     sodipodi:nodetypes="cccccccccc" />
  <path
     style="font-size:12;fill:#ffffff;fill-opacity:0.674603;fill-rule:evenodd;stroke-width:1pt;"
     d="M 476.07933 419.75628 C 484.26452 417.91461 490.14764 420.52363 488.81755 431.11321 C 487.5386 421.29099 480.73466 420.67711 476.07933 419.75628 z "
     id="path710"
     sodipodi:nodetypes="ccc" />
  <path
     style="font-size:12;fill:url(#linearGradient654);fill-opacity:0.67;fill-rule:evenodd;stroke-width:0.9;"
     d="M 477.51453 405.75425 C 461.75621 405.75425 445.73059 419.53514 445.7306 433.4104 C 445.7306 444.04585 457.85618 452.28554 475.92865 450.89703 C 491.68698 449.0457 501.23292 442.82507 504.00991 429.41262 C 504.00991 415.53738 493.2729 405.75425 477.51453 405.75425 z M 475.55647 420.42899 C 480.54825 420.42898 486.95103 423.26114 487.87671 429.50776 C 487.87671 433.90305 484.66783 438.35652 475.04769 439.74501 C 468.08393 440.6905 459.97773 438.19993 462.11002 430.92676 C 465.2472 422.91165 472.6159 420.67031 475.55647 420.42899 z "
     id="path711"
     sodipodi:nodetypes="cccccccccc" />
  <path
     style="font-size:12;fill:#ffffff;fill-opacity:0.67;fill-rule:evenodd;stroke-width:1pt;"
     d="M 255.05706 420.08332 C 255.00873 415.05649 258.44051 413.65479 261.43727 412.68808 C 255.10541 412.34974 253.55868 414.91149 255.05706 420.08332 z "
     id="path712"
     sodipodi:nodetypes="ccc" />
  <path
     d="M 268.11125 415.29589 C 264.44118 409.6454 252.80573 415.60144 256.25695 422.01861 C 259.9854 425.95448 272.19419 420.4316 268.11125 415.29589 z M 262.5394 433.4904 C 267.90558 431.29502 282.33899 428.89281 283.22289 420.76888 C 282.99188 410.24488 273.73662 405.57855 263.12649 405.34057 C 248.89573 404.89414 232.60878 415.25894 231.70128 428.96605 C 230.25987 440.89574 246.42159 447.65877 261.93895 450.97241 C 274.4603 453.90029 289.8376 452.51472 290.44465 445.74526 C 290.65619 433.54517 264.7732 436.29157 262.5394 433.4904 z "
     style="font-size:12;fill:url(#linearGradient669);fill-opacity:0.670635;fill-rule:evenodd;stroke-width:2.23117;stroke-linejoin:round;"
     id="path713"
     sodipodi:nodetypes="cccccccccc" />
  <path
     style="font-size:12;fill:#ffffff;fill-opacity:0.67;fill-rule:evenodd;stroke-width:1pt;"
     d="M 280.99107 415.56048 C 281.48078 423.48367 273.82834 427.9643 271.13813 429.60071 C 280.56548 427.58887 284.66491 421.11278 280.99107 415.56048 z "
     id="path714"
     sodipodi:nodetypes="ccc" />
  <path
     style="font-size:12;fill:#ffffff;fill-opacity:0.670635;fill-rule:evenodd;stroke-width:1pt;"
     d="M 304.06866 448.06924 C 316.10406 449.27761 324.80435 425.98019 329.4445 417.76326 C 328.71947 415.68485 315.81405 446.08751 304.06866 448.06924 z "
     id="path715"
     sodipodi:nodetypes="ccc" />
  <path
     style="font-size:12;fill:#ffffff;fill-opacity:0.67;fill-rule:evenodd;stroke-width:1pt;"
     d="M 378.39355 440.10414 C 378.88326 448.02733 374.56593 450.04287 369.41064 450.95426 C 377.82295 452.56754 382.06739 445.65644 378.39355 440.10414 z "
     id="path716"
     sodipodi:nodetypes="ccc" />
  <path
     style="font-size:12;fill-rule:evenodd;stroke-width:0.9;"
     d="M 545.02814 407.17274 C 527.13303 407.17274 508.93435 422.82228 508.93436 438.57899 C 508.93436 454.33572 520.60175 462.6415 538.49686 462.64149 C 556.39198 462.64149 574.59064 451.89822 574.59063 436.14149 C 574.59063 420.38479 562.9233 407.17274 545.02814 407.17274 z M 543.21562 427.51649 C 548.88426 427.51648 552.59061 429.68148 552.59061 434.67274 C 552.59061 439.66402 546.82179 442.64149 541.15312 442.64149 C 535.48446 442.6415 529.34065 441.66403 529.34065 436.67274 C 529.34065 431.68147 537.54694 427.51649 543.21562 427.51649 z "
     id="path717" />
  <path
     style="font-size:12;fill:url(#linearGradient650);fill-opacity:0.67;fill-rule:evenodd;stroke-width:0.9;"
     d="M 544.39258 405.75425 C 528.63425 405.75425 512.60862 419.53514 512.60863 433.4104 C 512.60863 444.04585 524.7342 452.28554 542.80668 450.89703 C 558.56502 449.0457 568.11095 442.82507 570.88795 429.41262 C 570.88795 415.53738 560.15094 405.75425 544.39258 405.75425 z M 542.79648 420.42899 C 547.78828 420.42898 553.82905 423.26114 554.75472 429.50776 C 554.75472 433.90305 551.06321 438.83916 541.44308 440.22765 C 534.59996 440.6905 527.33842 438.44125 528.26409 430.8061 C 528.26409 426.41082 537.80467 420.42899 542.79648 420.42899 z "
     id="path718"
     sodipodi:nodetypes="cccccccccc" />
  <path
     style="font-size:12;fill:#ff2623;fill-rule:evenodd;stroke-width:0.9;"
     d="M 545.02814 403.29645 C 527.13303 403.29645 508.93435 418.94599 508.93436 434.7027 C 508.93436 450.45943 520.60175 458.76521 538.49686 458.7652 C 556.39198 458.7652 574.59064 448.02193 574.59063 432.2652 C 574.59063 416.5085 562.9233 403.29645 545.02814 403.29645 z M 543.21562 423.6402 C 548.88426 423.64019 552.59061 425.80519 552.59061 430.79645 C 552.59061 435.78773 546.82179 438.7652 541.15312 438.7652 C 535.48446 438.76521 529.34065 437.78774 529.34065 432.79645 C 529.34065 427.80518 537.54694 423.6402 543.21562 423.6402 z "
     id="path719" />
  <path
     style="font-size:12;fill:#ff2623;fill-rule:evenodd;stroke-width:0.9;"
     d="M 545.02814 403.29645 C 527.13303 403.29645 508.93435 418.94599 508.93436 434.7027 C 508.93436 450.45943 520.60175 458.76521 538.49686 458.7652 C 556.39198 458.7652 574.59064 448.02193 574.59063 432.2652 C 574.59063 416.5085 562.9233 403.29645 545.02814 403.29645 z M 543.21562 423.6402 C 548.88426 423.64019 552.59061 425.80519 552.59061 430.79645 C 552.59061 435.78773 546.82179 438.7652 541.15312 438.7652 C 535.48446 438.76521 529.34065 437.78774 529.34065 432.79645 C 529.34065 427.80518 537.54694 423.6402 543.21562 423.6402 z "
     id="path720" />
  <path
     style="font-size:12;fill:#ff2623;fill-rule:evenodd;stroke-width:0.9;"
     d="M 545.02814 403.29645 C 527.13303 403.29645 508.93435 418.94599 508.93436 434.7027 C 508.93436 450.45943 520.60175 458.76521 538.49686 458.7652 C 556.39198 458.7652 574.59064 448.02193 574.59063 432.2652 C 574.59063 416.5085 562.9233 403.29645 545.02814 403.29645 z M 543.21562 423.6402 C 548.88426 423.64019 552.59061 425.80519 552.59061 430.79645 C 552.59061 435.78773 546.82179 438.7652 541.15312 438.7652 C 535.48446 438.76521 529.34065 437.78774 529.34065 432.79645 C 529.34065 427.80518 537.54694 423.6402 543.21562 423.6402 z "
     id="path721" />
  <path
     style="font-size:12;fill:#ffffff;fill-opacity:0.67;fill-rule:evenodd;stroke-width:0.9;"
     d="M 544.39258 405.75425 C 528.63425 405.75425 512.60862 419.53514 512.60863 433.4104 C 512.60863 444.04585 524.7342 452.28554 542.80668 450.89703 C 558.56502 449.0457 568.11095 442.82507 570.88795 429.41262 C 570.88795 415.53738 560.15094 405.75425 544.39258 405.75425 z M 542.4345 420.42899 C 547.4263 420.42898 553.82905 423.26114 554.75472 429.50776 C 554.75472 433.90305 551.54585 438.35652 541.92572 439.74501 C 534.96194 440.6905 526.85577 438.19993 528.98806 430.92676 C 532.12521 422.91165 539.49392 420.67031 542.4345 420.42899 z "
     id="path722"
     sodipodi:nodetypes="cccccccccc" />
  <path
     style="font-size:12;fill:#ffffff;fill-opacity:0.674603;fill-rule:evenodd;stroke-width:1pt;"
     d="M 542.95736 419.75628 C 551.14254 417.91461 557.02567 420.52363 555.69557 431.11321 C 554.41662 421.29099 547.61271 420.67711 542.95736 419.75628 z "
     id="path723"
     sodipodi:nodetypes="ccc" />
  <path
     style="font-size:12;fill:url(#linearGradient654);fill-opacity:0.67;fill-rule:evenodd;stroke-width:0.9;"
     d="M 544.39258 405.75425 C 528.63425 405.75425 512.60862 419.53514 512.60863 433.4104 C 512.60863 444.04585 524.7342 452.28554 542.80668 450.89703 C 558.56502 449.0457 568.11095 442.82507 570.88795 429.41262 C 570.88795 415.53738 560.15094 405.75425 544.39258 405.75425 z M 542.4345 420.42899 C 547.4263 420.42898 553.82905 423.26114 554.75472 429.50776 C 554.75472 433.90305 551.54585 438.35652 541.92572 439.74501 C 534.96194 440.6905 526.85577 438.19993 528.98806 430.92676 C 532.12521 422.91165 539.49392 420.67031 542.4345 420.42899 z "
     id="path724"
     sodipodi:nodetypes="cccccccccc" />
  <path
     style="font-size:12;fill:url(#linearGradient727);fill-opacity:0.670635;fill-rule:evenodd;stroke-width:2.23923;"
     d="M 375.69859 402.324 C 382.13303 402.44097 396.14619 404.20096 397.3161 402.21214 C 398.53287 400.46938 397.78406 397.18158 397.66706 395.19275 C 397.91131 382.47162 416.48706 385.14698 416.26845 394.84178 C 416.05776 402.99602 416.30354 401.49816 416.26845 401.51019 C 415.44951 403.73297 434.23876 402.20701 441.14117 402.324 C 449.56442 401.85603 450.61732 414.05374 441.14117 413.93674 C 434.23876 413.81975 415.68863 410.78312 415.80562 413.12294 C 412.88087 414.6438 418.49125 439.29791 418.72524 450.99689 C 419.7679 462.80773 399.75238 467.34471 398.1145 453.32644 C 395.45448 445.55383 398.95395 415.74708 397.53981 412.88384 C 396.25295 410.07605 380.97338 412.42101 374.77292 412.42101 C 368.11987 414.05371 364.96113 402.46151 375.69859 402.324 z "
     id="path726"
     sodipodi:nodetypes="ccccccccccccc" />
  <rect
     style="font-size:12;fill:#000000;fill-rule:evenodd;stroke-width:1pt;fill-opacity:0.17;stroke:none;stroke-opacity:1;"
     id="rect1175"
     width="800.00000000"
     height="599.99993896"
     x="-35.47074058"
     y="-59.65807346" />
  <rect
     style="font-size:12;fill:#9495ff;fill-rule:evenodd;stroke-width:1pt;fill-opacity:1;stroke:none;stroke-opacity:1;"
     id="rect639"
     width="800.00000000"
     height="599.99993896"
     x="-35.47074004"
     y="593.74890294" />
  <path
     style="font-size:12;fill-opacity:0.920635;fill-rule:evenodd;stroke-width:9.5;stroke:none;stroke-opacity:1;stroke-dasharray:none;fill:#000000;"
     d="M 455.50418 979.51526 C 383.17718 1040.4873 303.53018 1015.4233 264.63818 970.78426 C 205.95618 897.75634 33.947814 894.93597 -35.134826 1193.1658 L 764.52918 1182.2493 L 764.52918 594.2519 C 638.54671 843.49442 377.71807 622.41233 281.97704 785.78504 C 354.56504 731.28909 433.33018 749.69734 471.72818 803.1343 C 510.12618 856.57134 504.62618 939.16423 455.50418 979.51526 z "
     id="path640"
     sodipodi:nodetypes="cccccccc" />
  <path
     style="font-size:12;fill-opacity:1;fill-rule:evenodd;stroke-width:9.5;stroke:none;stroke-opacity:1;stroke-dasharray:none;fill:#1a1996;"
     d="M 455.50418 991.01441 C 383.17718 1051.9864 303.53018 1026.9224 264.63818 982.28341 C 205.95618 909.25541 54.79108 897.63641 -35.47072 1193.7484 L 764.52918 1193.7484 L 764.52918 593.74941 C 651.96018 857.81741 374.89418 635.32341 278.44718 790.93041 C 351.03518 736.43441 433.33018 761.19641 471.72818 814.63341 C 510.12618 868.07041 504.62618 950.66341 455.50418 991.01441 z "
     id="path641"
     sodipodi:nodetypes="cccccccc" />
  <path
     d="M 367.86687 491.33023 C 372.10937 487.08108 378.59771 491.27023 376.48144 495.31689 C 373.99839 499.74017 363.69046 495.51321 367.86687 491.33023 z M 353.15206 510.40234 C 360.93814 511.72564 338.4337 509.35727 337.97047 494.06881 C 336.79617 483.51507 350.87559 467.84401 364.91049 467.54094 C 383.73477 466.97235 408.11965 491.07993 409.81341 504.73776 C 411.72008 519.93146 376.13962 546.31579 354.28949 549.38428 C 340.4674 550.29434 335.3955 537.61281 337.04139 529.5807 C 338.73474 521.64178 353.47874 512.44742 353.15206 510.40234 z "
     style="font-size:12;fill-rule:evenodd;stroke-width:2.54998;stroke-linejoin:round;"
     id="path643"
     sodipodi:nodetypes="cccccccccc"
     transform="matrix(2.357430,0.000000,0.000000,2.357430,-507.4187,-304.9593)" />
  <path
     d="M 353.15206 507.27661 C 352.46648 505.23093 339.13967 501.72624 337.97047 492.13396 C 336.79617 482.34968 350.87559 467.82119 364.91049 467.54022 C 383.73477 467.01308 408.11965 489.36299 409.81341 502.02503 C 411.72008 516.11097 364.81326 546.38389 351.54999 544.72539 C 338.66027 543.26407 335.3955 532.50318 337.04139 525.05668 C 338.73474 517.69659 353.47874 509.17259 353.15206 507.27661 z M 367.1609 486.97704 C 371.4034 483.03769 378.59771 489.53941 376.48144 493.29104 C 373.99839 497.39182 362.98449 490.85504 367.1609 486.97704 z "
     style="font-size:12;fill:#1a19ff;fill-rule:evenodd;stroke-width:2.54998;stroke-linejoin:round;fill-opacity:1;"
     id="path644"
     transform="matrix(2.357430,0.000000,0.000000,2.357430,-507.4187,-304.9593)" />
  <path
     d="M 356.74133 506.50489 C 356.15993 504.75382 340.76286 499.09152 341.24653 491.37241 C 340.25067 482.99722 354.56493 468.43263 366.46713 470.27838 C 382.43093 469.82715 403.51772 489.0005 404.9541 499.83901 C 406.57103 511.89635 373.26893 527.93264 359.56244 533.39725 C 350.1066 536.81786 337.74914 535.22856 338.89906 525.65821 C 340.33509 519.35809 357.01837 508.12782 356.74133 506.50489 z M 363.7041 484.45733 C 369.51472 479.85597 380.28728 487.38827 377.26325 493.79587 C 372.45299 499.273 358.44127 492.20242 363.7041 484.45733 z "
     style="font-size:12;fill:url(#radialGradient635);fill-opacity:0.575397;fill-rule:evenodd;stroke-width:2.54998;stroke-linejoin:round;"
     id="path645"
     sodipodi:nodetypes="cccccccccc"
     transform="matrix(2.357430,0.000000,0.000000,2.357430,-507.4187,-304.9593)" />
  <path
     d="M 356.74133 506.50489 C 356.15993 504.75382 340.76286 499.09152 341.24653 491.37241 C 340.25067 482.99722 354.56493 468.43263 366.46713 470.27838 C 382.43093 469.82715 403.51772 489.0005 404.9541 499.83901 C 406.57103 511.89635 373.26893 527.93264 359.56244 533.39725 C 350.1066 536.81786 337.74914 535.22856 338.89906 525.65821 C 340.33509 519.35809 357.01837 508.12782 356.74133 506.50489 z M 363.7041 484.45733 C 369.51472 479.85597 380.28728 487.38827 377.26325 493.79587 C 372.45299 499.273 358.44127 492.20242 363.7041 484.45733 z "
     style="font-size:12;fill:url(#radialGradient635);fill-opacity:0.575397;fill-rule:evenodd;stroke-width:2.54998;stroke-linejoin:round;"
     id="path646"
     sodipodi:nodetypes="cccccccccc"
     transform="matrix(2.357430,0.000000,0.000000,2.357430,-507.4187,-304.9593)" />
  <path
     style="font-size:12;fill-rule:evenodd;stroke-width:0.9;"
     d="M 478.1501 1060.5797 C 460.25499 1060.5797 442.05634 1076.2292 442.05635 1091.986 C 442.05635 1107.7427 453.72376 1116.0484 471.61884 1116.0484 C 489.51396 1116.0484 507.71259 1105.3052 507.71258 1089.5485 C 507.71258 1073.7918 496.04524 1060.5797 478.1501 1060.5797 z M 476.33759 1080.9235 C 482.00624 1080.9234 485.71259 1083.0884 485.71259 1088.0797 C 485.71259 1093.071 479.94375 1096.0485 474.27509 1096.0485 C 468.60645 1096.0485 462.46261 1095.071 462.46261 1090.0797 C 462.46261 1085.0884 470.66892 1080.9235 476.33759 1080.9235 z "
     id="path647" />
  <path
     style="font-size:12;fill-rule:evenodd;stroke-width:2.23923;"
     d="M 373.39756 1057.276 C 380.87357 1057.4135 394.46632 1060.0247 395.82561 1057.6883 C 397.7286 1058.2381 397.08058 1051.0674 396.94465 1048.731 C 398.30394 1037.0492 415.41968 1039.2721 416.77894 1049.03 C 415.96336 1059.0627 417.84584 1054.6648 417.84584 1056.8637 C 416.89434 1059.4749 433.88528 1057.1386 441.90501 1057.276 C 451.69178 1056.7263 452.91512 1074.3179 441.90501 1074.1804 C 433.88528 1074.043 418.90301 1072.2125 417.84584 1073.7681 C 414.44766 1075.5547 420.42846 1101.2549 420.70033 1114.9983 C 420.83625 1128.3294 396.50524 1130.9406 394.60224 1116.6475 C 394.73816 1102.0795 396.5753 1076.4225 395.01003 1072.9435 C 393.51485 1069.6451 380.60171 1072.9435 373.39756 1072.9435 C 367.28083 1074.3179 363.61078 1059.6124 373.39756 1057.276 z "
     id="path648"
     sodipodi:nodetypes="ccccccccccccc" />
  <path
     style="font-size:12;fill-rule:evenodd;stroke-width:2.23923;"
     d="M 301.0284 1111.6374 C 295.42376 1110.2465 291.24161 1103.3458 296.13502 1089.2094 C 300.21209 1078.8789 306.32805 1068.1406 324.27199 1061.0724 C 330.93242 1058.6257 337.59288 1058.6257 344.25332 1060.6646 C 367.08911 1069.6358 376.87591 1082.2771 382.17706 1098.5884 C 386.00283 1105.6361 378.77888 1114.6278 367.90469 1111.6374 C 357.30444 1108.3774 340.5833 1090.4327 331.20429 1079.8304 C 326.44685 1090.9764 321.68936 1104.1614 314.48522 1109.5985 C 311.22296 1112.0452 306.22526 1112.4316 301.0284 1111.6374 z "
     id="path649"
     sodipodi:nodetypes="ccccccccc" />
  <path
     d="M 267.06598 1089.4925 C 273.21637 1088.9779 285.08665 1085.661 286.04854 1075.9615 C 285.79715 1063.3964 274.21438 1056.7198 262.66821 1056.4357 C 247.18199 1055.9027 229.96185 1070.4881 228.97429 1086.8536 C 227.40572 1101.0971 259.09588 1117.4607 274.4712 1115.3385 C 286.00758 1115.1039 294.25412 1108.0624 292.90008 1100.5326 C 293.13028 1085.9664 263.95654 1090.0739 267.06598 1089.4925 z M 264.3742 1073.8129 C 260.88401 1069.8295 256.08784 1073.2454 257.82886 1077.0389 C 259.87159 1081.1856 267.81 1077.7343 264.3742 1073.8129 z "
     style="font-size:12;fill-rule:evenodd;stroke-width:2.23117;stroke-linejoin:round;"
     id="path650"
     sodipodi:nodetypes="cccccccccc" />
  <path
     d="M 185.68719 1070.7988 C 189.92969 1066.5497 196.41803 1070.7388 194.30176 1074.7855 C 191.81871 1079.2088 181.51078 1074.9818 185.68719 1070.7988 z M 170.97238 1089.871 C 178.75846 1091.1943 156.25402 1088.8259 155.79079 1073.5374 C 154.61649 1062.9837 168.69591 1047.3126 182.73081 1047.0096 C 201.55509 1046.441 225.93997 1070.5485 227.63373 1084.2064 C 229.5404 1099.4001 193.95994 1125.7844 172.10981 1128.8529 C 158.28772 1129.7629 153.21582 1117.0814 154.86171 1109.0493 C 156.55506 1101.1104 171.29906 1091.916 170.97238 1089.871 z "
     style="font-size:12;fill-rule:evenodd;stroke-width:2.54998;stroke-linejoin:round;"
     id="path651"
     sodipodi:nodetypes="cccccccccc" />
  <path
     style="font-size:12;fill:url(#linearGradient650);fill-opacity:0.67;fill-rule:evenodd;stroke-width:0.9;"
     d="M 477.51453 1059.1612 C 461.75621 1059.1612 445.73059 1072.9421 445.7306 1086.8174 C 445.7306 1097.4528 457.85618 1105.6925 475.92865 1104.304 C 491.68698 1102.4527 501.23292 1096.232 504.00991 1082.8196 C 504.00991 1068.9443 493.2729 1059.1612 477.51453 1059.1612 z M 475.91845 1073.836 C 480.91023 1073.8359 486.95103 1076.6681 487.87671 1082.9147 C 487.87671 1087.31 484.18519 1092.2461 474.56505 1093.6346 C 467.72195 1094.0975 460.46038 1091.8482 461.38605 1084.2131 C 461.38605 1079.8178 470.92665 1073.836 475.91845 1073.836 z "
     id="path652"
     sodipodi:nodetypes="cccccccccc" />
  <path
     d="M 170.97238 1086.7452 C 170.2868 1084.6995 156.95999 1081.1949 155.79079 1071.6026 C 154.61649 1061.8183 168.69591 1047.2898 182.73081 1047.0088 C 201.55509 1046.4817 225.93997 1068.8316 227.63373 1081.4936 C 229.5404 1095.5796 182.63358 1125.8525 169.37031 1124.194 C 156.48059 1122.7327 153.21582 1111.9718 154.86171 1104.5253 C 156.55506 1097.1652 171.29906 1088.6412 170.97238 1086.7452 z M 184.98122 1066.4457 C 189.22372 1062.5063 196.41803 1069.008 194.30176 1072.7597 C 191.81871 1076.8604 180.80481 1070.3237 184.98122 1066.4457 z "
     style="font-size:12;fill:#1a19ff;fill-rule:evenodd;stroke-width:2.54998;stroke-linejoin:round;fill-opacity:1;"
     id="path653" />
  <path
     d="M 267.2509 1086.7101 C 273.1188 1084.8156 285.35892 1083.201 286.32547 1074.3175 C 286.07286 1062.8095 274.43395 1056.6947 262.83181 1056.4345 C 247.27052 1055.9463 229.96691 1069.3046 228.97456 1084.2933 C 227.39839 1097.3384 259.24216 1112.3253 274.69201 1110.3816 C 285.34742 1109.0282 294.57083 1105.9948 293.21022 1099.0985 C 293.44154 1085.7578 264.12638 1087.2426 267.2509 1086.7101 z M 264.23377 1070.3572 C 260.72666 1066.709 255.59495 1070.6913 257.34441 1074.1658 C 259.39704 1077.9635 267.68623 1073.9487 264.23377 1070.3572 z "
     style="font-size:12;fill:#1a19ff;fill-rule:evenodd;stroke-width:2.23117;stroke-linejoin:round;fill-opacity:1;"
     id="path654"
     sodipodi:nodetypes="cccccccccc" />
  <path
     style="font-size:12;fill:#ff2623;fill-rule:evenodd;stroke-width:2.23923;"
     d="M 301.0284 1107.5153 C 296.13502 1106.8357 291.24161 1099.2238 296.13502 1085.0873 C 300.21209 1074.7568 306.32805 1064.0186 324.27199 1056.9503 C 330.93242 1054.5037 337.59288 1054.5037 344.25332 1056.5425 C 367.08911 1065.5137 376.87591 1078.155 382.17706 1094.4663 C 384.75968 1104.9327 378.77888 1110.5057 367.90469 1107.5153 C 357.30444 1104.2553 340.5833 1086.3107 331.20429 1075.7083 C 326.44685 1086.8544 321.68936 1100.0393 314.48522 1105.4764 C 311.22296 1107.9231 305.514 1109.5542 301.0284 1107.5153 z "
     id="path655"
     sodipodi:nodetypes="ccccccccc" />
  <path
     style="font-size:12;fill:#1a19ff;fill-rule:evenodd;stroke-width:2.23923;fill-opacity:1;"
     d="M 373.39756 1054.0959 C 374.17122 1053.9511 394.46632 1056.8144 395.82561 1054.5037 C 396.74606 1053.6788 396.36932 1048.6588 396.23339 1046.348 C 397.59268 1034.7942 416.48658 1036.2894 417.84584 1045.9402 C 418.01281 1047.3709 417.9862 1046.9163 417.84584 1053.6881 C 417.94706 1056.3409 433.88528 1053.9599 441.90501 1054.0959 C 451.69178 1053.5522 452.91512 1070.9509 441.90501 1070.8149 C 433.88528 1070.679 418.20119 1069.6186 417.84584 1070.4071 C 414.23712 1072.0338 420.42846 1097.5926 420.70033 1111.1854 C 420.83625 1124.3703 396.50524 1126.9529 394.60224 1112.8165 C 394.73816 1098.4082 396.99167 1070.9218 395.36094 1069.4161 C 393.86576 1066.1539 380.60171 1069.5916 373.39756 1069.5916 C 367.28083 1070.9509 363.61078 1056.4066 373.39756 1054.0959 z "
     id="path656"
     sodipodi:nodetypes="ccccccccccccc" />
  <path
     style="font-size:12;fill:#ff2623;fill-rule:evenodd;stroke-width:0.9;"
     d="M 478.1501 1056.7034 C 460.25499 1056.7034 442.05634 1072.353 442.05635 1088.1097 C 442.05635 1103.8664 453.72376 1112.1722 471.61884 1112.1721 C 489.51396 1112.1721 507.71259 1101.4289 507.71258 1085.6722 C 507.71258 1069.9155 496.04524 1056.7034 478.1501 1056.7034 z M 476.33759 1077.0472 C 482.00624 1077.0472 485.71259 1079.2122 485.71259 1084.2034 C 485.71259 1089.1947 479.94375 1092.1722 474.27509 1092.1722 C 468.60645 1092.1722 462.46261 1091.1947 462.46261 1086.2034 C 462.46261 1081.2121 470.66892 1077.0472 476.33759 1077.0472 z "
     id="path657" />
  <path
     d="M 174.56165 1085.9735 C 173.98025 1084.2224 158.58318 1078.5601 159.06685 1070.841 C 158.07099 1062.4658 172.38525 1047.9012 184.28745 1049.747 C 200.25125 1049.2958 221.33804 1068.4691 222.77442 1079.3076 C 224.39135 1091.365 191.08925 1107.4012 177.38276 1112.8658 C 167.92692 1116.2865 155.56946 1114.6972 156.71938 1105.1268 C 158.15541 1098.8267 174.83869 1087.5964 174.56165 1085.9735 z M 181.52442 1063.9259 C 187.33504 1059.3246 198.1076 1066.8569 195.08357 1073.2645 C 190.27331 1078.7416 176.26159 1071.671 181.52442 1063.9259 z "
     style="font-size:12;fill:url(#radialGradient635);fill-opacity:0.575397;fill-rule:evenodd;stroke-width:2.54998;stroke-linejoin:round;"
     id="path658"
     sodipodi:nodetypes="cccccccccc" />
  <path
     style="font-size:12;fill:#1a19ff;fill-rule:evenodd;stroke-width:2.23923;fill-opacity:1;"
     d="M 301.0284 1107.5153 C 296.13502 1106.8357 291.24161 1099.2238 296.13502 1085.0873 C 300.21209 1074.7568 306.32805 1064.0186 324.27199 1056.9503 C 330.93242 1054.5037 337.59288 1054.5037 344.25332 1056.5425 C 367.08911 1065.5137 376.87591 1078.155 382.17706 1094.4663 C 384.75968 1104.9327 378.77888 1110.5057 367.90469 1107.5153 C 357.30444 1104.2553 340.5833 1086.3107 331.20429 1075.7083 C 326.44685 1086.8544 321.68936 1100.0393 314.48522 1105.4764 C 311.22296 1107.9231 305.514 1109.5542 301.0284 1107.5153 z "
     id="path659"
     sodipodi:nodetypes="ccccccccc" />
  <path
     style="font-size:12;fill:#ff2623;fill-rule:evenodd;stroke-width:0.9;"
     d="M 478.1501 1056.7034 C 460.25499 1056.7034 442.05634 1072.353 442.05635 1088.1097 C 442.05635 1103.8664 453.72376 1112.1722 471.61884 1112.1721 C 489.51396 1112.1721 507.71259 1101.4289 507.71258 1085.6722 C 507.71258 1069.9155 496.04524 1056.7034 478.1501 1056.7034 z M 476.33759 1077.0472 C 482.00624 1077.0472 485.71259 1079.2122 485.71259 1084.2034 C 485.71259 1089.1947 479.94375 1092.1722 474.27509 1092.1722 C 468.60645 1092.1722 462.46261 1091.1947 462.46261 1086.2034 C 462.46261 1081.2121 470.66892 1077.0472 476.33759 1077.0472 z "
     id="path660" />
  <path
     d="M 174.56165 1085.9735 C 173.98025 1084.2224 158.58318 1078.5601 159.06685 1070.841 C 158.07099 1062.4658 172.38525 1047.9012 184.28745 1049.747 C 200.25125 1049.2958 221.33804 1068.4691 222.77442 1079.3076 C 224.39135 1091.365 191.08925 1107.4012 177.38276 1112.8658 C 167.92692 1116.2865 155.56946 1114.6972 156.71938 1105.1268 C 158.15541 1098.8267 174.83869 1087.5964 174.56165 1085.9735 z M 181.52442 1063.9259 C 187.33504 1059.3246 198.1076 1066.8569 195.08357 1073.2645 C 190.27331 1078.7416 176.26159 1071.671 181.52442 1063.9259 z "
     style="font-size:12;fill:url(#radialGradient635);fill-opacity:0.575397;fill-rule:evenodd;stroke-width:2.54998;stroke-linejoin:round;"
     id="path661"
     sodipodi:nodetypes="cccccccccc" />
  <path
     d="M 268.11125 1068.7029 C 264.44118 1063.0524 252.80573 1069.0084 256.25695 1075.4256 C 259.9854 1079.3614 272.19419 1073.8386 268.11125 1068.7029 z M 262.5394 1086.8974 C 267.90558 1084.702 282.33899 1082.2998 283.22289 1074.1758 C 282.99188 1063.6518 273.73662 1058.9855 263.12649 1058.7475 C 248.89573 1058.3011 232.60878 1068.6659 231.70128 1082.373 C 230.25987 1094.3027 246.42159 1101.0657 261.93895 1104.3794 C 274.4603 1107.3072 289.8376 1105.9217 290.44465 1099.1522 C 290.65619 1086.9521 264.7732 1089.6985 262.5394 1086.8974 z "
     style="font-size:12;fill:#ffffff;fill-opacity:0.670635;fill-rule:evenodd;stroke-width:2.23117;stroke-linejoin:round;"
     id="path662"
     sodipodi:nodetypes="cccccccccc" />
  <path
     style="font-size:12;fill:#ffffff;fill-opacity:0.67;fill-rule:evenodd;stroke-width:2.23923;"
     d="M 300.89948 1101.8968 C 297.45243 1099.8673 294.08881 1097.8051 298.26091 1085.7524 C 301.73701 1076.9447 309.72844 1065.0123 325.02736 1058.986 C 330.70602 1056.9 338.23603 1057.8256 343.91469 1059.564 C 363.38438 1067.2128 375.43123 1080.7676 379.95096 1094.6746 C 382.15289 1103.5982 374.27669 1107.8869 365.00541 1103.486 C 358.28184 1099.318 342.63698 1084.4813 330.47498 1070.3506 C 326.4188 1079.8537 318.65992 1094.7978 312.51771 1099.4334 C 309.73632 1101.5195 304.28886 1103.7802 300.89948 1101.8968 z "
     id="path663"
     sodipodi:nodetypes="ccccccccc" />
  <path
     style="font-size:12;fill:#ffffff;fill-opacity:0.670635;fill-rule:evenodd;stroke-width:2.23923;"
     d="M 375.69859 1055.731 C 382.13303 1055.8479 396.14619 1057.6079 397.3161 1055.6191 C 398.53287 1053.8763 397.78406 1050.5885 397.66706 1048.5997 C 397.91131 1035.8786 416.48706 1038.5539 416.26845 1048.2487 C 416.05776 1056.403 416.30354 1054.9051 416.26845 1054.9172 C 415.44951 1057.1399 434.23876 1055.614 441.14117 1055.731 C 449.56442 1055.263 450.61732 1067.4607 441.14117 1067.3437 C 434.23876 1067.2267 415.68863 1064.1901 415.80562 1066.5299 C 412.88087 1068.0508 418.49125 1092.7049 418.72524 1104.4038 C 419.7679 1116.2147 399.75238 1120.7517 398.1145 1106.7334 C 395.45448 1098.9608 398.95395 1069.154 397.53981 1066.2908 C 396.25295 1063.483 380.97338 1065.828 374.77292 1065.828 C 368.11987 1067.4607 364.96113 1055.8685 375.69859 1055.731 z "
     id="path664"
     sodipodi:nodetypes="ccccccccccccc" />
  <path
     style="font-size:12;fill:#1a19ff;fill-rule:evenodd;stroke-width:0.9;fill-opacity:1;"
     d="M 478.1501 1056.7034 C 460.25499 1056.7034 442.05634 1072.353 442.05635 1088.1097 C 442.05635 1103.8664 453.72376 1112.1722 471.61884 1112.1721 C 489.51396 1112.1721 507.71259 1101.4289 507.71258 1085.6722 C 507.71258 1069.9155 496.04524 1056.7034 478.1501 1056.7034 z M 476.33759 1077.0472 C 482.00624 1077.0472 485.71259 1079.2122 485.71259 1084.2034 C 485.71259 1089.1947 479.94375 1092.1722 474.27509 1092.1722 C 468.60645 1092.1722 462.46261 1091.1947 462.46261 1086.2034 C 462.46261 1081.2121 470.66892 1077.0472 476.33759 1077.0472 z "
     id="path665" />
  <path
     style="font-size:12;fill:#ffffff;fill-opacity:0.67;fill-rule:evenodd;stroke-width:0.9;"
     d="M 477.51453 1059.1612 C 461.75621 1059.1612 445.73059 1072.9421 445.7306 1086.8174 C 445.7306 1097.4528 457.85618 1105.6925 475.92865 1104.304 C 491.68698 1102.4527 501.23292 1096.232 504.00991 1082.8196 C 504.00991 1068.9443 493.2729 1059.1612 477.51453 1059.1612 z M 475.55647 1073.836 C 480.54825 1073.8359 486.95103 1076.6681 487.87671 1082.9147 C 487.87671 1087.31 484.66783 1091.7635 475.04769 1093.152 C 468.08393 1094.0975 459.97773 1091.6069 462.11002 1084.3337 C 465.2472 1076.3186 472.6159 1074.0773 475.55647 1073.836 z "
     id="path666"
     sodipodi:nodetypes="cccccccccc" />
  <path
     style="font-size:12;fill:#ffffff;fill-opacity:0.674603;fill-rule:evenodd;stroke-width:1pt;"
     d="M 476.07933 1073.1632 C 484.26452 1071.3216 490.14764 1073.9306 488.81755 1084.5202 C 487.5386 1074.698 480.73466 1074.0841 476.07933 1073.1632 z "
     id="path667"
     sodipodi:nodetypes="ccc" />
  <path
     style="font-size:12;fill:url(#linearGradient654);fill-opacity:0.67;fill-rule:evenodd;stroke-width:0.9;"
     d="M 477.51453 1059.1612 C 461.75621 1059.1612 445.73059 1072.9421 445.7306 1086.8174 C 445.7306 1097.4528 457.85618 1105.6925 475.92865 1104.304 C 491.68698 1102.4527 501.23292 1096.232 504.00991 1082.8196 C 504.00991 1068.9443 493.2729 1059.1612 477.51453 1059.1612 z M 475.55647 1073.836 C 480.54825 1073.8359 486.95103 1076.6681 487.87671 1082.9147 C 487.87671 1087.31 484.66783 1091.7635 475.04769 1093.152 C 468.08393 1094.0975 459.97773 1091.6069 462.11002 1084.3337 C 465.2472 1076.3186 472.6159 1074.0773 475.55647 1073.836 z "
     id="path668"
     sodipodi:nodetypes="cccccccccc" />
  <path
     style="font-size:12;fill:#ffffff;fill-opacity:0.67;fill-rule:evenodd;stroke-width:1pt;"
     d="M 255.05706 1073.4903 C 255.00873 1068.4635 258.44051 1067.0618 261.43727 1066.095 C 255.10541 1065.7567 253.55868 1068.3185 255.05706 1073.4903 z "
     id="path669"
     sodipodi:nodetypes="ccc" />
  <path
     d="M 268.11125 1068.7029 C 264.44118 1063.0524 252.80573 1069.0084 256.25695 1075.4256 C 259.9854 1079.3614 272.19419 1073.8386 268.11125 1068.7029 z M 262.5394 1086.8974 C 267.90558 1084.702 282.33899 1082.2998 283.22289 1074.1758 C 282.99188 1063.6518 273.73662 1058.9855 263.12649 1058.7475 C 248.89573 1058.3011 232.60878 1068.6659 231.70128 1082.373 C 230.25987 1094.3027 246.42159 1101.0657 261.93895 1104.3794 C 274.4603 1107.3072 289.8376 1105.9217 290.44465 1099.1522 C 290.65619 1086.9521 264.7732 1089.6985 262.5394 1086.8974 z "
     style="font-size:12;fill:url(#linearGradient669);fill-opacity:0.670635;fill-rule:evenodd;stroke-width:2.23117;stroke-linejoin:round;"
     id="path670"
     sodipodi:nodetypes="cccccccccc" />
  <path
     style="font-size:12;fill:#ffffff;fill-opacity:0.67;fill-rule:evenodd;stroke-width:1pt;"
     d="M 280.99107 1068.9674 C 281.48078 1076.8906 273.82834 1081.3713 271.13813 1083.0077 C 280.56548 1080.9958 284.66491 1074.5197 280.99107 1068.9674 z "
     id="path671"
     sodipodi:nodetypes="ccc" />
  <path
     style="font-size:12;fill:#ffffff;fill-opacity:0.670635;fill-rule:evenodd;stroke-width:1pt;"
     d="M 304.06866 1101.4762 C 316.10406 1102.6846 324.80435 1079.3872 329.4445 1071.1702 C 328.71947 1069.0918 315.81405 1099.4945 304.06866 1101.4762 z "
     id="path672"
     sodipodi:nodetypes="ccc" />
  <path
     style="font-size:12;fill:#ffffff;fill-opacity:0.67;fill-rule:evenodd;stroke-width:1pt;"
     d="M 378.39355 1093.5111 C 378.88326 1101.4343 374.56593 1103.4498 369.41064 1104.3612 C 377.82295 1105.9745 382.06739 1099.0634 378.39355 1093.5111 z "
     id="path673"
     sodipodi:nodetypes="ccc" />
  <path
     style="font-size:12;fill-rule:evenodd;stroke-width:0.9;"
     d="M 545.02814 1060.5797 C 527.13303 1060.5797 508.93435 1076.2292 508.93436 1091.986 C 508.93436 1107.7427 520.60175 1116.0484 538.49686 1116.0484 C 556.39198 1116.0484 574.59064 1105.3052 574.59063 1089.5485 C 574.59063 1073.7918 562.9233 1060.5797 545.02814 1060.5797 z M 543.21562 1080.9235 C 548.88426 1080.9234 552.59061 1083.0884 552.59061 1088.0797 C 552.59061 1093.071 546.82179 1096.0485 541.15312 1096.0485 C 535.48446 1096.0485 529.34065 1095.071 529.34065 1090.0797 C 529.34065 1085.0884 537.54694 1080.9235 543.21562 1080.9235 z "
     id="path674" />
  <path
     style="font-size:12;fill:url(#linearGradient650);fill-opacity:0.67;fill-rule:evenodd;stroke-width:0.9;"
     d="M 544.39258 1059.1612 C 528.63425 1059.1612 512.60862 1072.9421 512.60863 1086.8174 C 512.60863 1097.4528 524.7342 1105.6925 542.80668 1104.304 C 558.56502 1102.4527 568.11095 1096.232 570.88795 1082.8196 C 570.88795 1068.9443 560.15094 1059.1612 544.39258 1059.1612 z M 542.79648 1073.836 C 547.78828 1073.8359 553.82905 1076.6681 554.75472 1082.9147 C 554.75472 1087.31 551.06321 1092.2461 541.44308 1093.6346 C 534.59996 1094.0975 527.33842 1091.8482 528.26409 1084.2131 C 528.26409 1079.8178 537.80467 1073.836 542.79648 1073.836 z "
     id="path675"
     sodipodi:nodetypes="cccccccccc" />
  <path
     style="font-size:12;fill:#ff2623;fill-rule:evenodd;stroke-width:0.9;"
     d="M 545.02814 1056.7034 C 527.13303 1056.7034 508.93435 1072.353 508.93436 1088.1097 C 508.93436 1103.8664 520.60175 1112.1722 538.49686 1112.1721 C 556.39198 1112.1721 574.59064 1101.4289 574.59063 1085.6722 C 574.59063 1069.9155 562.9233 1056.7034 545.02814 1056.7034 z M 543.21562 1077.0472 C 548.88426 1077.0472 552.59061 1079.2122 552.59061 1084.2034 C 552.59061 1089.1947 546.82179 1092.1722 541.15312 1092.1722 C 535.48446 1092.1722 529.34065 1091.1947 529.34065 1086.2034 C 529.34065 1081.2121 537.54694 1077.0472 543.21562 1077.0472 z "
     id="path676" />
  <path
     style="font-size:12;fill:#ff2623;fill-rule:evenodd;stroke-width:0.9;"
     d="M 545.02814 1056.7034 C 527.13303 1056.7034 508.93435 1072.353 508.93436 1088.1097 C 508.93436 1103.8664 520.60175 1112.1722 538.49686 1112.1721 C 556.39198 1112.1721 574.59064 1101.4289 574.59063 1085.6722 C 574.59063 1069.9155 562.9233 1056.7034 545.02814 1056.7034 z M 543.21562 1077.0472 C 548.88426 1077.0472 552.59061 1079.2122 552.59061 1084.2034 C 552.59061 1089.1947 546.82179 1092.1722 541.15312 1092.1722 C 535.48446 1092.1722 529.34065 1091.1947 529.34065 1086.2034 C 529.34065 1081.2121 537.54694 1077.0472 543.21562 1077.0472 z "
     id="path677" />
  <path
     style="font-size:12;fill:#1a19ff;fill-rule:evenodd;stroke-width:0.9;fill-opacity:1;"
     d="M 545.02814 1056.7034 C 527.13303 1056.7034 508.93435 1072.353 508.93436 1088.1097 C 508.93436 1103.8664 520.60175 1112.1722 538.49686 1112.1721 C 556.39198 1112.1721 574.59064 1101.4289 574.59063 1085.6722 C 574.59063 1069.9155 562.9233 1056.7034 545.02814 1056.7034 z M 543.21562 1077.0472 C 548.88426 1077.0472 552.59061 1079.2122 552.59061 1084.2034 C 552.59061 1089.1947 546.82179 1092.1722 541.15312 1092.1722 C 535.48446 1092.1722 529.34065 1091.1947 529.34065 1086.2034 C 529.34065 1081.2121 537.54694 1077.0472 543.21562 1077.0472 z "
     id="path678" />
  <path
     style="font-size:12;fill:#ffffff;fill-opacity:0.67;fill-rule:evenodd;stroke-width:0.9;"
     d="M 544.39258 1059.1612 C 528.63425 1059.1612 512.60862 1072.9421 512.60863 1086.8174 C 512.60863 1097.4528 524.7342 1105.6925 542.80668 1104.304 C 558.56502 1102.4527 568.11095 1096.232 570.88795 1082.8196 C 570.88795 1068.9443 560.15094 1059.1612 544.39258 1059.1612 z M 542.4345 1073.836 C 547.4263 1073.8359 553.82905 1076.6681 554.75472 1082.9147 C 554.75472 1087.31 551.54585 1091.7635 541.92572 1093.152 C 534.96194 1094.0975 526.85577 1091.6069 528.98806 1084.3337 C 532.12521 1076.3186 539.49392 1074.0773 542.4345 1073.836 z "
     id="path679"
     sodipodi:nodetypes="cccccccccc" />
  <path
     style="font-size:12;fill:#ffffff;fill-opacity:0.674603;fill-rule:evenodd;stroke-width:1pt;"
     d="M 542.95736 1073.1632 C 551.14254 1071.3216 557.02567 1073.9306 555.69557 1084.5202 C 554.41662 1074.698 547.61271 1074.0841 542.95736 1073.1632 z "
     id="path680"
     sodipodi:nodetypes="ccc" />
  <path
     style="font-size:12;fill:url(#linearGradient654);fill-opacity:0.67;fill-rule:evenodd;stroke-width:0.9;"
     d="M 544.39258 1059.1612 C 528.63425 1059.1612 512.60862 1072.9421 512.60863 1086.8174 C 512.60863 1097.4528 524.7342 1105.6925 542.80668 1104.304 C 558.56502 1102.4527 568.11095 1096.232 570.88795 1082.8196 C 570.88795 1068.9443 560.15094 1059.1612 544.39258 1059.1612 z M 542.4345 1073.836 C 547.4263 1073.8359 553.82905 1076.6681 554.75472 1082.9147 C 554.75472 1087.31 551.54585 1091.7635 541.92572 1093.152 C 534.96194 1094.0975 526.85577 1091.6069 528.98806 1084.3337 C 532.12521 1076.3186 539.49392 1074.0773 542.4345 1073.836 z "
     id="path681"
     sodipodi:nodetypes="cccccccccc" />
  <path
     style="font-size:12;fill:url(#linearGradient727);fill-opacity:0.670635;fill-rule:evenodd;stroke-width:2.23923;"
     d="M 375.69859 1055.731 C 382.13303 1055.8479 396.14619 1057.6079 397.3161 1055.6191 C 398.53287 1053.8763 397.78406 1050.5885 397.66706 1048.5997 C 397.91131 1035.8786 416.48706 1038.5539 416.26845 1048.2487 C 416.05776 1056.403 416.30354 1054.9051 416.26845 1054.9172 C 415.44951 1057.1399 434.23876 1055.614 441.14117 1055.731 C 449.56442 1055.263 450.61732 1067.4607 441.14117 1067.3437 C 434.23876 1067.2267 415.68863 1064.1901 415.80562 1066.5299 C 412.88087 1068.0508 418.49125 1092.7049 418.72524 1104.4038 C 419.7679 1116.2147 399.75238 1120.7517 398.1145 1106.7334 C 395.45448 1098.9608 398.95395 1069.154 397.53981 1066.2908 C 396.25295 1063.483 380.97338 1065.828 374.77292 1065.828 C 368.11987 1067.4607 364.96113 1055.8685 375.69859 1055.731 z "
     id="path682"
     sodipodi:nodetypes="ccccccccccccc" />
</svg>
